G04*
G04 #@! TF.GenerationSoftware,Altium Limited,Altium Designer,21.9.1 (22)*
G04*
G04 Layer_Color=65535*
%FSLAX25Y25*%
%MOIN*%
G70*
G04*
G04 #@! TF.SameCoordinates,04C95DCE-10AD-4B50-8E95-557A3389731F*
G04*
G04*
G04 #@! TF.FilePolarity,Positive*
G04*
G01*
G75*
%ADD10C,0.00984*%
%ADD11C,0.00787*%
%ADD12C,0.02362*%
%ADD13C,0.00500*%
%ADD14C,0.01000*%
D10*
X131650Y257155D02*
G03*
X131650Y257155I492J0D01*
G01*
X129327Y271240D02*
G03*
X129327Y271240I492J0D01*
G01*
X161508Y217618D02*
G03*
X161508Y217618I492J0D01*
G01*
X161366Y123345D02*
G03*
X161366Y123345I492J0D01*
G01*
D11*
X144500Y220295D02*
G03*
X149500Y220295I2500J0D01*
G01*
X247492Y259366D02*
G03*
X247492Y259366I394J0D01*
G01*
X240500Y275500D02*
X180500D01*
X240500D02*
Y298020D01*
X180500Y275500D02*
Y298020D01*
X240500D02*
X180500D01*
X162449Y248988D02*
Y265012D01*
X134457Y248988D02*
Y265012D01*
X162449D02*
X134457D01*
X162449Y248988D02*
X134457D01*
X136118Y275650D02*
Y284350D01*
X156787Y292382D02*
X140213D01*
X160882Y275650D02*
Y284350D01*
X156787Y267618D02*
X140213D01*
X157433Y144705D02*
Y220295D01*
X136567Y144705D02*
Y220295D01*
X157433D02*
X149500D01*
X144500D02*
X136567D01*
X157433Y144705D02*
X136567D01*
X159402Y133276D02*
Y142724D01*
X134598D01*
X159402Y133276D02*
X134598D01*
Y142724D01*
X159402Y104276D02*
Y113724D01*
X134598D01*
X159402Y104276D02*
X134598D01*
Y113724D01*
X159402Y224276D02*
Y233724D01*
X134598D01*
X159402Y224276D02*
X134598D01*
Y233724D01*
X159543Y131512D02*
X131551D01*
X159543Y115488D02*
X131551D01*
X159543D02*
Y131512D01*
X131551Y115488D02*
Y131512D01*
X159402Y237276D02*
Y246724D01*
X134598D01*
X159402Y237276D02*
X134598D01*
Y246724D01*
D12*
X152315Y216358D02*
G03*
X152315Y216358I1181J0D01*
G01*
D13*
X244500Y273500D02*
X174500D01*
Y103500D02*
Y273500D01*
X244500Y103500D02*
X174500D01*
X244500D02*
Y273500D01*
D14*
X219997Y282499D02*
Y276501D01*
X222996D01*
X223995Y277500D01*
Y279500D01*
X222996Y280499D01*
X219997D01*
X214998Y276501D02*
X216998D01*
X217997Y277500D01*
Y279500D01*
X216998Y280499D01*
X214998D01*
X213999Y279500D01*
Y278500D01*
X217997D01*
X211999Y282499D02*
Y276501D01*
X209000D01*
X208001Y277500D01*
Y278500D01*
Y279500D01*
X209000Y280499D01*
X211999D01*
X206001D02*
Y277500D01*
X205002Y276501D01*
X202003D01*
Y280499D01*
X198004Y274501D02*
X197004D01*
X196004Y275501D01*
Y280499D01*
X199004D01*
X200003Y279500D01*
Y277500D01*
X199004Y276501D01*
X196004D01*
X149500Y258999D02*
X150499Y259999D01*
X152499D01*
X153498Y258999D01*
Y255001D01*
X152499Y254001D01*
X150499D01*
X149500Y255001D01*
X143502Y254001D02*
X147500D01*
X143502Y258000D01*
Y258999D01*
X144501Y259999D01*
X146501D01*
X147500Y258999D01*
X155001Y281499D02*
X156500D01*
X157000Y280999D01*
Y280000D01*
X156500Y279500D01*
X155001D01*
X153501Y281499D02*
X152501D01*
X152002Y280999D01*
Y279500D01*
X153501D01*
X154001Y280000D01*
X153501Y280500D01*
X152002D01*
X151002Y278500D02*
Y281499D01*
X149502D01*
X149003Y280999D01*
Y280000D01*
X149502Y279500D01*
X151002D01*
X148003Y279000D02*
X146004D01*
X145004Y281499D02*
Y279500D01*
Y280500D01*
X144504Y280999D01*
X144004Y281499D01*
X143504D01*
X140505Y279500D02*
X141505D01*
X142005Y280000D01*
Y280999D01*
X141505Y281499D01*
X140505D01*
X140006Y280999D01*
Y280500D01*
X142005D01*
X139006Y279500D02*
X137506D01*
X137006Y280000D01*
X137506Y280500D01*
X138506D01*
X139006Y280999D01*
X138506Y281499D01*
X137006D01*
X154000Y185499D02*
X152001D01*
X151001Y184499D01*
Y181500D01*
X154000D01*
X155000Y182500D01*
X154000Y183499D01*
X151001D01*
X149002Y181500D02*
Y185499D01*
X148002D01*
X147003Y184499D01*
Y181500D01*
Y184499D01*
X146003Y185499D01*
X145003Y184499D01*
Y181500D01*
X143004Y179501D02*
Y185499D01*
X140005D01*
X139005Y184499D01*
Y182500D01*
X140005Y181500D01*
X143004D01*
X152000Y135000D02*
Y140998D01*
X149001D01*
X148001Y139998D01*
Y137999D01*
X149001Y136999D01*
X152000D01*
X150001D02*
X148001Y135000D01*
X143003D02*
Y140998D01*
X146002Y137999D01*
X142003D01*
X152000Y106000D02*
Y111998D01*
X149001D01*
X148001Y110998D01*
Y108999D01*
X149001Y107999D01*
X152000D01*
X150001D02*
X148001Y106000D01*
X146002Y110998D02*
X145002Y111998D01*
X143003D01*
X142003Y110998D01*
Y109999D01*
X143003Y108999D01*
X144003D01*
X143003D01*
X142003Y107999D01*
Y107000D01*
X143003Y106000D01*
X145002D01*
X146002Y107000D01*
X152000Y239000D02*
Y244998D01*
X149001D01*
X148001Y243998D01*
Y241999D01*
X149001Y240999D01*
X152000D01*
X150001D02*
X148001Y239000D01*
X142003D02*
X146002D01*
X142003Y242999D01*
Y243998D01*
X143003Y244998D01*
X145002D01*
X146002Y243998D01*
X151000Y226000D02*
Y231998D01*
X148001D01*
X147001Y230998D01*
Y228999D01*
X148001Y227999D01*
X151000D01*
X149001D02*
X147001Y226000D01*
X145002D02*
X143003D01*
X144002D01*
Y231998D01*
X145002Y230998D01*
X146901Y125498D02*
X147901Y126498D01*
X149900D01*
X150900Y125498D01*
Y121500D01*
X149900Y120500D01*
X147901D01*
X146901Y121500D01*
X144902Y120500D02*
X142903D01*
X143902D01*
Y126498D01*
X144902Y125498D01*
X230500Y185500D02*
Y189499D01*
X228501Y191498D01*
X226501Y189499D01*
Y185500D01*
Y188499D01*
X230500D01*
X224502Y189499D02*
Y185500D01*
Y187499D01*
X223502Y188499D01*
X222503Y189499D01*
X221503D01*
X214505Y191498D02*
Y185500D01*
X217504D01*
X218504Y186500D01*
Y188499D01*
X217504Y189499D01*
X214505D01*
X212506D02*
Y186500D01*
X211506Y185500D01*
X208507D01*
Y189499D01*
X206508Y185500D02*
X204508D01*
X205508D01*
Y189499D01*
X206508D01*
X201509Y185500D02*
Y189499D01*
X198510D01*
X197511Y188499D01*
Y185500D01*
X194512D02*
X192512D01*
X191513Y186500D01*
Y188499D01*
X192512Y189499D01*
X194512D01*
X195511Y188499D01*
Y186500D01*
X194512Y185500D01*
M02*
