G04*
G04 #@! TF.GenerationSoftware,Altium Limited,Altium Designer,21.9.1 (22)*
G04*
G04 Layer_Physical_Order=2*
G04 Layer_Color=16711680*
%FSLAX25Y25*%
%MOIN*%
G70*
G04*
G04 #@! TF.SameCoordinates,04C95DCE-10AD-4B50-8E95-557A3389731F*
G04*
G04*
G04 #@! TF.FilePolarity,Positive*
G04*
G01*
G75*
%ADD19C,0.06063*%
%ADD20R,0.06063X0.06063*%
%ADD28C,0.00800*%
%ADD29C,0.07087*%
%ADD30R,0.07087X0.07087*%
%ADD31C,0.05118*%
%ADD32R,0.05118X0.05118*%
%ADD33C,0.05937*%
%ADD34R,0.05906X0.05906*%
%ADD35C,0.05906*%
%ADD36R,0.05937X0.05937*%
%ADD37C,0.06500*%
%ADD38R,0.05315X0.05315*%
%ADD39C,0.05315*%
%ADD40R,0.03937X0.04921*%
%ADD41R,0.04724X0.04724*%
G36*
X169612Y185882D02*
X169215Y185617D01*
X168747Y185524D01*
X164991D01*
X164784Y185024D01*
X165003Y184804D01*
X165497Y183949D01*
X165753Y182994D01*
Y182006D01*
X165497Y181052D01*
X165003Y180196D01*
X164304Y179497D01*
X163830Y179224D01*
X163964Y178724D01*
X167200D01*
X167668Y178630D01*
X168065Y178365D01*
X170907Y175523D01*
X176494D01*
X176685Y175985D01*
X176484Y176186D01*
X175988Y177045D01*
X175732Y178004D01*
Y178996D01*
X175988Y179955D01*
X176484Y180814D01*
X177186Y181516D01*
X178045Y182012D01*
X179004Y182269D01*
X179996D01*
X180955Y182012D01*
X181814Y181516D01*
X182516Y180814D01*
X183012Y179955D01*
X183268Y178996D01*
Y178004D01*
X183012Y177045D01*
X182516Y176186D01*
X181814Y175484D01*
X181366Y175226D01*
X181300Y174730D01*
X183583Y172447D01*
X184045Y172638D01*
Y188224D01*
X183738Y188467D01*
X183268Y188259D01*
Y188004D01*
X183012Y187045D01*
X182516Y186186D01*
X181814Y185484D01*
X180955Y184988D01*
X179996Y184731D01*
X179004D01*
X178045Y184988D01*
X177186Y185484D01*
X176484Y186186D01*
X175988Y187045D01*
X175732Y188004D01*
Y188996D01*
X175988Y189955D01*
X176484Y190814D01*
X176685Y191015D01*
X176494Y191477D01*
X175207D01*
X169612Y185882D01*
D02*
G37*
G36*
X118000Y96000D02*
X183106D01*
X183166Y96083D01*
X183085Y96735D01*
X167735Y112085D01*
X167470Y112482D01*
X167376Y112950D01*
Y135117D01*
X166915Y135308D01*
X166840Y135233D01*
X166051Y134778D01*
X165172Y134543D01*
X164261D01*
X163382Y134778D01*
X162594Y135233D01*
X161950Y135877D01*
X161495Y136665D01*
X161465Y136776D01*
X158790D01*
X132741Y110727D01*
Y105543D01*
X125826D01*
Y112458D01*
X131011D01*
X157418Y138865D01*
X157815Y139130D01*
X158283Y139224D01*
X161465D01*
X161495Y139334D01*
X161950Y140123D01*
X162594Y140767D01*
X163382Y141222D01*
X164261Y141457D01*
X165172D01*
X166051Y141222D01*
X166840Y140767D01*
X166915Y140692D01*
X167376Y140883D01*
Y155293D01*
X164693Y157976D01*
X162000D01*
X161532Y158070D01*
X161135Y158335D01*
X160870Y158732D01*
X160830Y158928D01*
X160552Y159003D01*
X160350Y159119D01*
X136771Y135540D01*
Y126650D01*
X136844Y126630D01*
X137610Y126188D01*
X138235Y125563D01*
X138677Y124797D01*
X138906Y123942D01*
Y123058D01*
X138677Y122203D01*
X138235Y121438D01*
X137610Y120812D01*
X136844Y120370D01*
X135989Y120141D01*
X135105D01*
X134251Y120370D01*
X133485Y120812D01*
X132859Y121438D01*
X132417Y122203D01*
X132188Y123058D01*
Y123942D01*
X132417Y124797D01*
X132859Y125563D01*
X133485Y126188D01*
X134251Y126630D01*
X134324Y126650D01*
Y136047D01*
X134417Y136515D01*
X134682Y136912D01*
X158619Y160850D01*
X158503Y161051D01*
X158247Y162006D01*
Y162994D01*
X158503Y163949D01*
X158997Y164804D01*
X159696Y165503D01*
X160170Y165777D01*
X160036Y166277D01*
X147507D01*
X135380Y154150D01*
X135497Y153948D01*
X135753Y152994D01*
Y152006D01*
X135497Y151051D01*
X135003Y150196D01*
X134304Y149497D01*
X133449Y149003D01*
X132494Y148747D01*
X131506D01*
X130552Y149003D01*
X129696Y149497D01*
X128997Y150196D01*
X128503Y151051D01*
X128247Y152006D01*
Y152994D01*
X128503Y153948D01*
X128997Y154804D01*
X129696Y155503D01*
X130552Y155997D01*
X131506Y156253D01*
X132494D01*
X133449Y155997D01*
X133650Y155880D01*
X146135Y168365D01*
X146532Y168630D01*
X147000Y168723D01*
X160036D01*
X160170Y169223D01*
X159696Y169497D01*
X158997Y170196D01*
X158503Y171052D01*
X158443Y171276D01*
X135557D01*
X135497Y171052D01*
X135003Y170196D01*
X134304Y169497D01*
X133449Y169003D01*
X132494Y168747D01*
X131506D01*
X130552Y169003D01*
X129696Y169497D01*
X128997Y170196D01*
X128503Y171052D01*
X128247Y172006D01*
Y172994D01*
X128503Y173949D01*
X128997Y174804D01*
X129696Y175503D01*
X130552Y175997D01*
X131506Y176253D01*
X132494D01*
X133449Y175997D01*
X134304Y175503D01*
X135003Y174804D01*
X135497Y173949D01*
X135557Y173723D01*
X158443D01*
X158503Y173949D01*
X158997Y174804D01*
X159696Y175503D01*
X160170Y175777D01*
X160036Y176277D01*
X158800D01*
X158332Y176370D01*
X157935Y176635D01*
X153735Y180835D01*
X153470Y181232D01*
X153376Y181700D01*
Y214100D01*
X153470Y214568D01*
X153735Y214965D01*
X157235Y218465D01*
X157632Y218730D01*
X158100Y218824D01*
X164600D01*
X165068Y218730D01*
X165465Y218465D01*
X167065Y216865D01*
X167330Y216468D01*
X167423Y216000D01*
Y200307D01*
X167885Y200116D01*
X170077Y202307D01*
Y240000D01*
X170170Y240468D01*
X170435Y240865D01*
X173635Y244065D01*
X174032Y244330D01*
X174500Y244424D01*
X177624D01*
X177758Y244923D01*
X177063Y245324D01*
X176324Y246063D01*
X175802Y246968D01*
X175531Y247977D01*
Y248000D01*
X179500D01*
Y248500D01*
X180000D01*
Y252468D01*
X180023D01*
X181032Y252198D01*
X181937Y251676D01*
X182676Y250937D01*
X183198Y250032D01*
X183468Y249023D01*
Y248406D01*
X183968Y248199D01*
X221687Y285917D01*
X221453Y286323D01*
X221157Y287428D01*
Y288572D01*
X221453Y289676D01*
X222024Y290667D01*
X222833Y291476D01*
X223823Y292047D01*
X224928Y292343D01*
X226072D01*
X227176Y292047D01*
X228167Y291476D01*
X228976Y290667D01*
X229547Y289676D01*
X229843Y288572D01*
Y287428D01*
X229547Y286323D01*
X228976Y285333D01*
X228167Y284524D01*
X227176Y283953D01*
X226072Y283657D01*
X224928D01*
X223823Y283953D01*
X223417Y284187D01*
X181565Y242335D01*
X181486Y242282D01*
X181506Y241694D01*
X181814Y241515D01*
X182516Y240814D01*
X183012Y239955D01*
X183268Y238996D01*
Y238004D01*
X183012Y237045D01*
X182516Y236186D01*
X181814Y235485D01*
X180955Y234988D01*
X179996Y234732D01*
X179004D01*
X178045Y234988D01*
X177186Y235485D01*
X176484Y236186D01*
X175988Y237045D01*
X175732Y238004D01*
Y238996D01*
X175988Y239955D01*
X176484Y240814D01*
X177147Y241476D01*
X177112Y241791D01*
X177063Y241976D01*
X175007D01*
X172523Y239493D01*
Y201800D01*
X172430Y201332D01*
X172165Y200935D01*
X167065Y195835D01*
X166805Y195574D01*
X166805Y195574D01*
X165381Y194150D01*
X165497Y193948D01*
X165753Y192994D01*
Y192090D01*
X166166Y191796D01*
X169535Y195165D01*
X169932Y195430D01*
X170400Y195524D01*
X176494D01*
X176685Y195985D01*
X176484Y196186D01*
X175988Y197045D01*
X175732Y198004D01*
Y198996D01*
X175988Y199955D01*
X176484Y200814D01*
X177186Y201516D01*
X178045Y202012D01*
X179004Y202269D01*
X179996D01*
X180955Y202012D01*
X181814Y201516D01*
X182516Y200814D01*
X183012Y199955D01*
X183268Y198996D01*
Y198004D01*
X183012Y197045D01*
X182516Y196186D01*
X182315Y195985D01*
X182506Y195524D01*
X184700D01*
X185168Y195430D01*
X185565Y195165D01*
X212765Y167965D01*
X213030Y167568D01*
X213123Y167100D01*
Y120138D01*
X213030Y119669D01*
X212765Y119272D01*
X206386Y112893D01*
Y109261D01*
X207931D01*
Y102739D01*
X202394D01*
Y109261D01*
X203939D01*
Y113400D01*
X204032Y113868D01*
X204297Y114265D01*
X209408Y119376D01*
X209217Y119838D01*
X205150D01*
Y126162D01*
X210677D01*
Y166593D01*
X184193Y193077D01*
X183407D01*
X183216Y192615D01*
X186134Y189697D01*
X186399Y189300D01*
X186492Y188831D01*
Y115057D01*
X200025Y101523D01*
X208855D01*
X209609Y102277D01*
X209417Y102739D01*
X208693D01*
Y109261D01*
X214230D01*
Y104905D01*
X214699Y104700D01*
X214992Y104936D01*
Y109261D01*
X220529D01*
Y102739D01*
X216309D01*
X210304Y96735D01*
X210224Y96083D01*
X210283Y96000D01*
X252000D01*
Y294000D01*
X118000D01*
Y96000D01*
D02*
G37*
G36*
X163830Y175777D02*
X164304Y175503D01*
X165003Y174804D01*
X165497Y173949D01*
X165753Y172994D01*
Y172006D01*
X165497Y171052D01*
X165003Y170196D01*
X164304Y169497D01*
X163830Y169223D01*
X163964Y168723D01*
X171893D01*
X172535Y169365D01*
X172932Y169630D01*
X173400Y169723D01*
X175926D01*
X175988Y169955D01*
X176484Y170814D01*
X177186Y171516D01*
X178045Y172012D01*
X179004Y172268D01*
X179578D01*
X179762Y172699D01*
X179456Y173076D01*
X170400D01*
X169932Y173170D01*
X169535Y173435D01*
X166693Y176277D01*
X163964D01*
X163830Y175777D01*
D02*
G37*
G36*
X173265Y166635D02*
X172868Y166370D01*
X172400Y166277D01*
X163964D01*
X163830Y165777D01*
X164304Y165503D01*
X165003Y164804D01*
X165497Y163949D01*
X165753Y162994D01*
Y162006D01*
X165497Y161051D01*
X165405Y160892D01*
X165659Y160332D01*
X165668Y160330D01*
X166065Y160065D01*
X169465Y156665D01*
X169730Y156268D01*
X169824Y155800D01*
Y113457D01*
X174950Y108330D01*
X175450Y108537D01*
Y109033D01*
X175726Y110063D01*
X176259Y110987D01*
X177013Y111741D01*
X177937Y112274D01*
X178967Y112550D01*
X180033D01*
X181063Y112274D01*
X181987Y111741D01*
X182741Y110987D01*
X183274Y110063D01*
X183550Y109033D01*
Y107967D01*
X183274Y106937D01*
X182741Y106013D01*
X181987Y105259D01*
X181063Y104726D01*
X180033Y104450D01*
X179537D01*
X179330Y103950D01*
X184457Y98823D01*
X198668D01*
X198820Y99323D01*
X198653Y99435D01*
X184403Y113685D01*
X184138Y114082D01*
X184045Y114550D01*
Y150662D01*
X183583Y150853D01*
X182892Y150162D01*
X183012Y149955D01*
X183268Y148996D01*
Y148004D01*
X183012Y147045D01*
X182516Y146186D01*
X181814Y145484D01*
X180955Y144988D01*
X179996Y144731D01*
X179004D01*
X178045Y144988D01*
X177186Y145484D01*
X176484Y146186D01*
X175988Y147045D01*
X175732Y148004D01*
Y148996D01*
X175988Y149955D01*
X176484Y150814D01*
X177186Y151516D01*
X178045Y152012D01*
X179004Y152269D01*
X179996D01*
X180955Y152012D01*
X181162Y151892D01*
X182445Y153175D01*
Y155462D01*
X181983Y155654D01*
X181814Y155484D01*
X180955Y154988D01*
X179996Y154732D01*
X179004D01*
X178045Y154988D01*
X177186Y155484D01*
X176484Y156186D01*
X175988Y157045D01*
X175732Y158004D01*
Y158996D01*
X175988Y159955D01*
X176484Y160814D01*
X177186Y161516D01*
X178045Y162012D01*
X179004Y162268D01*
X179996D01*
X180955Y162012D01*
X181814Y161516D01*
X181983Y161346D01*
X182445Y161538D01*
Y165462D01*
X181983Y165654D01*
X181814Y165484D01*
X180955Y164988D01*
X179996Y164732D01*
X179004D01*
X178045Y164988D01*
X177186Y165484D01*
X176484Y166186D01*
X175988Y167045D01*
X175926Y167277D01*
X173907D01*
X173265Y166635D01*
D02*
G37*
%LPC*%
G36*
X180957Y292543D02*
X185000D01*
Y288500D01*
X180957D01*
Y292543D01*
D02*
G37*
G36*
X186000D02*
X190043D01*
Y288500D01*
X186000D01*
Y292543D01*
D02*
G37*
G36*
X135200Y292690D02*
X136209D01*
X137184Y292429D01*
X138057Y291924D01*
X138771Y291211D01*
X139275Y290337D01*
X139536Y289363D01*
Y288354D01*
X139275Y287379D01*
X138771Y286506D01*
X138057Y285792D01*
X137184Y285288D01*
X136209Y285027D01*
X135200D01*
X134226Y285288D01*
X133352Y285792D01*
X132639Y286506D01*
X132134Y287379D01*
X131873Y288354D01*
Y289363D01*
X132134Y290337D01*
X132639Y291211D01*
X133352Y291924D01*
X134226Y292429D01*
X135200Y292690D01*
D02*
G37*
G36*
X160791D02*
X161800D01*
X162774Y292429D01*
X163648Y291924D01*
X164361Y291211D01*
X164866Y290337D01*
X165127Y289363D01*
Y288354D01*
X164866Y287379D01*
X164361Y286506D01*
X163648Y285792D01*
X162774Y285288D01*
X161800Y285027D01*
X160791D01*
X159816Y285288D01*
X158943Y285792D01*
X158229Y286506D01*
X157725Y287379D01*
X157464Y288354D01*
Y289363D01*
X157725Y290337D01*
X158229Y291211D01*
X158943Y291924D01*
X159816Y292429D01*
X160791Y292690D01*
D02*
G37*
G36*
X194928Y292343D02*
X196072D01*
X197176Y292047D01*
X198167Y291476D01*
X198976Y290667D01*
X199547Y289676D01*
X199843Y288572D01*
Y287428D01*
X199547Y286323D01*
X198976Y285333D01*
X198167Y284524D01*
X197176Y283953D01*
X196072Y283657D01*
X194928D01*
X193824Y283953D01*
X192833Y284524D01*
X192025Y285333D01*
X191453Y286323D01*
X191157Y287428D01*
Y288572D01*
X191453Y289676D01*
X192025Y290667D01*
X192833Y291476D01*
X193824Y292047D01*
X194928Y292343D01*
D02*
G37*
G36*
X204928D02*
X206072D01*
X207176Y292047D01*
X208167Y291476D01*
X208976Y290667D01*
X209547Y289676D01*
X209843Y288572D01*
Y287428D01*
X209547Y286323D01*
X208976Y285333D01*
X208167Y284524D01*
X207176Y283953D01*
X206072Y283657D01*
X204928D01*
X203824Y283953D01*
X202833Y284524D01*
X202025Y285333D01*
X201453Y286323D01*
X201157Y287428D01*
Y288572D01*
X201453Y289676D01*
X202025Y290667D01*
X202833Y291476D01*
X203824Y292047D01*
X204928Y292343D01*
D02*
G37*
G36*
X234928D02*
X236072D01*
X237176Y292047D01*
X238167Y291476D01*
X238976Y290667D01*
X239547Y289676D01*
X239843Y288572D01*
Y287428D01*
X239547Y286323D01*
X238976Y285333D01*
X238167Y284524D01*
X237176Y283953D01*
X236072Y283657D01*
X234928D01*
X233823Y283953D01*
X232833Y284524D01*
X232025Y285333D01*
X231453Y286323D01*
X231157Y287428D01*
Y288572D01*
X231453Y289676D01*
X232025Y290667D01*
X232833Y291476D01*
X233823Y292047D01*
X234928Y292343D01*
D02*
G37*
G36*
X180957Y287500D02*
X185000D01*
Y283457D01*
X180957D01*
Y287500D01*
D02*
G37*
G36*
X186000D02*
X190043D01*
Y283457D01*
X186000D01*
Y287500D01*
D02*
G37*
G36*
X131873Y274973D02*
X139536D01*
Y267310D01*
X131873D01*
Y274973D01*
D02*
G37*
G36*
X160791D02*
X161800D01*
X162774Y274712D01*
X163648Y274208D01*
X164361Y273494D01*
X164866Y272621D01*
X165127Y271646D01*
Y270637D01*
X164866Y269663D01*
X164361Y268789D01*
X163648Y268076D01*
X162774Y267571D01*
X161800Y267310D01*
X160791D01*
X159816Y267571D01*
X158943Y268076D01*
X158229Y268789D01*
X157725Y269663D01*
X157464Y270637D01*
Y271646D01*
X157725Y272621D01*
X158229Y273494D01*
X158943Y274208D01*
X159816Y274712D01*
X160791Y274973D01*
D02*
G37*
G36*
X178967Y272550D02*
X180033D01*
X181063Y272274D01*
X181987Y271741D01*
X182741Y270987D01*
X183274Y270063D01*
X183550Y269033D01*
Y267967D01*
X183274Y266937D01*
X182741Y266013D01*
X181987Y265259D01*
X181063Y264726D01*
X180033Y264450D01*
X178967D01*
X177937Y264726D01*
X177013Y265259D01*
X176259Y266013D01*
X175726Y266937D01*
X175450Y267967D01*
Y269033D01*
X175726Y270063D01*
X176259Y270987D01*
X177013Y271741D01*
X177937Y272274D01*
X178967Y272550D01*
D02*
G37*
G36*
X238967D02*
X240033D01*
X241063Y272274D01*
X241987Y271741D01*
X242741Y270987D01*
X243274Y270063D01*
X243550Y269033D01*
Y267967D01*
X243274Y266937D01*
X242741Y266013D01*
X241987Y265259D01*
X241063Y264726D01*
X240033Y264450D01*
X238967D01*
X237937Y264726D01*
X237013Y265259D01*
X236259Y266013D01*
X235726Y266937D01*
X235450Y267967D01*
Y269033D01*
X235726Y270063D01*
X236259Y270987D01*
X237013Y271741D01*
X237937Y272274D01*
X238967Y272550D01*
D02*
G37*
G36*
X214928Y292343D02*
X216072D01*
X217177Y292047D01*
X218167Y291476D01*
X218975Y290667D01*
X219547Y289676D01*
X219843Y288572D01*
Y287428D01*
X219547Y286323D01*
X218975Y285333D01*
X218167Y284524D01*
X217177Y283953D01*
X216072Y283657D01*
X214928D01*
X213824Y283953D01*
X213418Y284187D01*
X186865Y257635D01*
X186468Y257370D01*
X186000Y257277D01*
X183074D01*
X183012Y257045D01*
X182516Y256186D01*
X181814Y255485D01*
X180955Y254988D01*
X179996Y254731D01*
X179004D01*
X178045Y254988D01*
X177186Y255485D01*
X176484Y256186D01*
X175988Y257045D01*
X175732Y258004D01*
Y258996D01*
X175988Y259955D01*
X176484Y260814D01*
X177186Y261515D01*
X178045Y262012D01*
X179004Y262268D01*
X179996D01*
X180955Y262012D01*
X181814Y261515D01*
X182516Y260814D01*
X183012Y259955D01*
X183074Y259723D01*
X185493D01*
X211687Y285917D01*
X211453Y286323D01*
X211157Y287428D01*
Y288572D01*
X211453Y289676D01*
X212024Y290667D01*
X212833Y291476D01*
X213824Y292047D01*
X214928Y292343D01*
D02*
G37*
G36*
X235732Y262268D02*
X243268D01*
Y254731D01*
X235732D01*
Y262268D01*
D02*
G37*
G36*
X135094Y260359D02*
X141812D01*
Y253641D01*
X135094D01*
Y260359D01*
D02*
G37*
G36*
X158011D02*
X158895D01*
X159749Y260130D01*
X160515Y259688D01*
X161141Y259063D01*
X161583Y258296D01*
X161812Y257442D01*
Y256558D01*
X161583Y255703D01*
X161141Y254938D01*
X160515Y254312D01*
X159749Y253870D01*
X158895Y253641D01*
X158011D01*
X157156Y253870D01*
X156390Y254312D01*
X155765Y254938D01*
X155323Y255703D01*
X155094Y256558D01*
Y257442D01*
X155323Y258296D01*
X155765Y259063D01*
X156390Y259688D01*
X157156Y260130D01*
X158011Y260359D01*
D02*
G37*
G36*
X178978Y252468D02*
X179000D01*
Y249000D01*
X175531D01*
Y249023D01*
X175802Y250032D01*
X176324Y250937D01*
X177063Y251676D01*
X177968Y252198D01*
X178978Y252468D01*
D02*
G37*
G36*
X239004Y252269D02*
X239996D01*
X240955Y252012D01*
X241814Y251516D01*
X242515Y250814D01*
X243012Y249955D01*
X243268Y248996D01*
Y248004D01*
X243012Y247045D01*
X242515Y246186D01*
X241814Y245484D01*
X240955Y244988D01*
X239996Y244731D01*
X239004D01*
X238045Y244988D01*
X237186Y245484D01*
X236485Y246186D01*
X235988Y247045D01*
X235732Y248004D01*
Y248996D01*
X235988Y249955D01*
X236485Y250814D01*
X237186Y251516D01*
X238045Y252012D01*
X239004Y252269D01*
D02*
G37*
G36*
X125826Y245458D02*
X132741D01*
Y238543D01*
X125826D01*
Y245458D01*
D02*
G37*
G36*
X164261D02*
X165172D01*
X166051Y245222D01*
X166840Y244767D01*
X167483Y244123D01*
X167938Y243335D01*
X168174Y242455D01*
Y241545D01*
X167938Y240666D01*
X167483Y239877D01*
X166840Y239233D01*
X166051Y238778D01*
X165172Y238543D01*
X164261D01*
X163382Y238778D01*
X162594Y239233D01*
X161950Y239877D01*
X161495Y240666D01*
X161259Y241545D01*
Y242455D01*
X161495Y243335D01*
X161950Y244123D01*
X162594Y244767D01*
X163382Y245222D01*
X164261Y245458D01*
D02*
G37*
G36*
X239004Y242268D02*
X239996D01*
X240955Y242012D01*
X241814Y241515D01*
X242515Y240814D01*
X243012Y239955D01*
X243268Y238996D01*
Y238004D01*
X243012Y237045D01*
X242515Y236186D01*
X241814Y235485D01*
X240955Y234988D01*
X239996Y234732D01*
X239004D01*
X238045Y234988D01*
X237186Y235485D01*
X236485Y236186D01*
X235988Y237045D01*
X235732Y238004D01*
Y238996D01*
X235988Y239955D01*
X236485Y240814D01*
X237186Y241515D01*
X238045Y242012D01*
X239004Y242268D01*
D02*
G37*
G36*
X238978Y232469D02*
X239000D01*
Y229000D01*
X235531D01*
Y229023D01*
X235802Y230032D01*
X236324Y230937D01*
X237063Y231676D01*
X237968Y232198D01*
X238978Y232469D01*
D02*
G37*
G36*
X240000D02*
X240022D01*
X241032Y232198D01*
X241937Y231676D01*
X242676Y230937D01*
X243198Y230032D01*
X243468Y229023D01*
Y229000D01*
X240000D01*
Y232469D01*
D02*
G37*
G36*
X125826Y232457D02*
X132741D01*
Y225542D01*
X125826D01*
Y232457D01*
D02*
G37*
G36*
X164261D02*
X165172D01*
X166051Y232222D01*
X166840Y231767D01*
X167483Y231123D01*
X167938Y230334D01*
X168174Y229455D01*
Y228545D01*
X167938Y227665D01*
X167483Y226877D01*
X166840Y226233D01*
X166051Y225778D01*
X165172Y225542D01*
X164261D01*
X163382Y225778D01*
X162594Y226233D01*
X161950Y226877D01*
X161495Y227665D01*
X161259Y228545D01*
Y229455D01*
X161495Y230334D01*
X161950Y231123D01*
X162594Y231767D01*
X163382Y232222D01*
X164261Y232457D01*
D02*
G37*
G36*
X179004Y232269D02*
X179996D01*
X180955Y232012D01*
X181814Y231516D01*
X182516Y230814D01*
X183012Y229955D01*
X183268Y228996D01*
Y228004D01*
X183012Y227045D01*
X182516Y226186D01*
X181814Y225484D01*
X180955Y224988D01*
X179996Y224731D01*
X179004D01*
X178045Y224988D01*
X177186Y225484D01*
X176484Y226186D01*
X175988Y227045D01*
X175732Y228004D01*
Y228996D01*
X175988Y229955D01*
X176484Y230814D01*
X177186Y231516D01*
X178045Y232012D01*
X179004Y232269D01*
D02*
G37*
G36*
X235531Y228000D02*
X239000D01*
Y224532D01*
X238978D01*
X237968Y224802D01*
X237063Y225324D01*
X236324Y226063D01*
X235802Y226968D01*
X235531Y227977D01*
Y228000D01*
D02*
G37*
G36*
X240000D02*
X243468D01*
Y227977D01*
X243198Y226968D01*
X242676Y226063D01*
X241937Y225324D01*
X241032Y224802D01*
X240022Y224532D01*
X240000D01*
Y228000D01*
D02*
G37*
G36*
X179004Y222269D02*
X179996D01*
X180955Y222012D01*
X181814Y221515D01*
X182516Y220814D01*
X183012Y219955D01*
X183268Y218996D01*
Y218004D01*
X183012Y217045D01*
X182516Y216186D01*
X181814Y215484D01*
X180955Y214988D01*
X179996Y214732D01*
X179004D01*
X178045Y214988D01*
X177186Y215484D01*
X176484Y216186D01*
X175988Y217045D01*
X175732Y218004D01*
Y218996D01*
X175988Y219955D01*
X176484Y220814D01*
X177186Y221515D01*
X178045Y222012D01*
X179004Y222269D01*
D02*
G37*
G36*
X239004D02*
X239996D01*
X240955Y222012D01*
X241814Y221515D01*
X242515Y220814D01*
X243012Y219955D01*
X243268Y218996D01*
Y218004D01*
X243012Y217045D01*
X242515Y216186D01*
X241814Y215484D01*
X240955Y214988D01*
X239996Y214732D01*
X239004D01*
X238045Y214988D01*
X237186Y215484D01*
X236485Y216186D01*
X235988Y217045D01*
X235732Y218004D01*
Y218996D01*
X235988Y219955D01*
X236485Y220814D01*
X237186Y221515D01*
X238045Y222012D01*
X239004Y222269D01*
D02*
G37*
G36*
X131506Y216253D02*
X132494D01*
X133449Y215997D01*
X134304Y215503D01*
X135003Y214804D01*
X135497Y213948D01*
X135753Y212994D01*
Y212006D01*
X135497Y211052D01*
X135003Y210196D01*
X134304Y209497D01*
X133449Y209003D01*
X132494Y208747D01*
X131506D01*
X130552Y209003D01*
X129696Y209497D01*
X128997Y210196D01*
X128503Y211052D01*
X128247Y212006D01*
Y212994D01*
X128503Y213948D01*
X128997Y214804D01*
X129696Y215503D01*
X130552Y215997D01*
X131506Y216253D01*
D02*
G37*
G36*
X179004Y212268D02*
X179996D01*
X180955Y212012D01*
X181814Y211515D01*
X182516Y210814D01*
X183012Y209955D01*
X183268Y208996D01*
Y208004D01*
X183012Y207045D01*
X182516Y206186D01*
X181814Y205485D01*
X180955Y204988D01*
X179996Y204731D01*
X179004D01*
X178045Y204988D01*
X177186Y205485D01*
X176484Y206186D01*
X175988Y207045D01*
X175732Y208004D01*
Y208996D01*
X175988Y209955D01*
X176484Y210814D01*
X177186Y211515D01*
X178045Y212012D01*
X179004Y212268D01*
D02*
G37*
G36*
X239004D02*
X239996D01*
X240955Y212012D01*
X241814Y211515D01*
X242515Y210814D01*
X243012Y209955D01*
X243268Y208996D01*
Y208004D01*
X243012Y207045D01*
X242515Y206186D01*
X241814Y205485D01*
X240955Y204988D01*
X239996Y204731D01*
X239004D01*
X238045Y204988D01*
X237186Y205485D01*
X236485Y206186D01*
X235988Y207045D01*
X235732Y208004D01*
Y208996D01*
X235988Y209955D01*
X236485Y210814D01*
X237186Y211515D01*
X238045Y212012D01*
X239004Y212268D01*
D02*
G37*
G36*
X131506Y206253D02*
X132494D01*
X133449Y205997D01*
X134304Y205503D01*
X135003Y204804D01*
X135497Y203948D01*
X135753Y202994D01*
Y202006D01*
X135497Y201051D01*
X135003Y200196D01*
X134304Y199497D01*
X133449Y199003D01*
X132494Y198747D01*
X131506D01*
X130552Y199003D01*
X129696Y199497D01*
X128997Y200196D01*
X128503Y201051D01*
X128247Y202006D01*
Y202994D01*
X128503Y203948D01*
X128997Y204804D01*
X129696Y205503D01*
X130552Y205997D01*
X131506Y206253D01*
D02*
G37*
G36*
X239004Y202269D02*
X239996D01*
X240955Y202012D01*
X241814Y201516D01*
X242515Y200814D01*
X243012Y199955D01*
X243268Y198996D01*
Y198004D01*
X243012Y197045D01*
X242515Y196186D01*
X241814Y195484D01*
X240955Y194988D01*
X239996Y194731D01*
X239004D01*
X238045Y194988D01*
X237186Y195484D01*
X236485Y196186D01*
X235988Y197045D01*
X235732Y198004D01*
Y198996D01*
X235988Y199955D01*
X236485Y200814D01*
X237186Y201516D01*
X238045Y202012D01*
X239004Y202269D01*
D02*
G37*
G36*
X131506Y196253D02*
X132494D01*
X133449Y195997D01*
X134304Y195503D01*
X135003Y194804D01*
X135497Y193948D01*
X135753Y192994D01*
Y192006D01*
X135497Y191051D01*
X135003Y190196D01*
X134304Y189497D01*
X133449Y189003D01*
X132494Y188747D01*
X131506D01*
X130552Y189003D01*
X129696Y189497D01*
X128997Y190196D01*
X128503Y191051D01*
X128247Y192006D01*
Y192994D01*
X128503Y193948D01*
X128997Y194804D01*
X129696Y195503D01*
X130552Y195997D01*
X131506Y196253D01*
D02*
G37*
G36*
X239004Y192269D02*
X239996D01*
X240955Y192012D01*
X241814Y191516D01*
X242515Y190814D01*
X243012Y189955D01*
X243268Y188996D01*
Y188004D01*
X243012Y187045D01*
X242515Y186186D01*
X241814Y185484D01*
X240955Y184988D01*
X239996Y184731D01*
X239004D01*
X238045Y184988D01*
X237186Y185484D01*
X236485Y186186D01*
X235988Y187045D01*
X235732Y188004D01*
Y188996D01*
X235988Y189955D01*
X236485Y190814D01*
X237186Y191516D01*
X238045Y192012D01*
X239004Y192269D01*
D02*
G37*
G36*
X131480Y186453D02*
X131500D01*
Y183000D01*
X128047D01*
Y183020D01*
X128317Y184026D01*
X128837Y184927D01*
X129573Y185663D01*
X130474Y186183D01*
X131480Y186453D01*
D02*
G37*
G36*
X132500D02*
X132520D01*
X133526Y186183D01*
X134427Y185663D01*
X135163Y184927D01*
X135683Y184026D01*
X135953Y183020D01*
Y183000D01*
X132500D01*
Y186453D01*
D02*
G37*
G36*
X128047Y182000D02*
X131500D01*
Y178547D01*
X131480D01*
X130474Y178817D01*
X129573Y179337D01*
X128837Y180073D01*
X128317Y180974D01*
X128047Y181980D01*
Y182000D01*
D02*
G37*
G36*
X132500D02*
X135953D01*
Y181980D01*
X135683Y180974D01*
X135163Y180073D01*
X134427Y179337D01*
X133526Y178817D01*
X132520Y178547D01*
X132500D01*
Y182000D01*
D02*
G37*
G36*
X239004Y182269D02*
X239996D01*
X240955Y182012D01*
X241814Y181516D01*
X242515Y180814D01*
X243012Y179955D01*
X243268Y178996D01*
Y178004D01*
X243012Y177045D01*
X242515Y176186D01*
X241814Y175484D01*
X240955Y174988D01*
X239996Y174732D01*
X239004D01*
X238045Y174988D01*
X237186Y175484D01*
X236485Y176186D01*
X235988Y177045D01*
X235732Y178004D01*
Y178996D01*
X235988Y179955D01*
X236485Y180814D01*
X237186Y181516D01*
X238045Y182012D01*
X239004Y182269D01*
D02*
G37*
G36*
Y172268D02*
X239996D01*
X240955Y172012D01*
X241814Y171516D01*
X242515Y170814D01*
X243012Y169955D01*
X243268Y168996D01*
Y168004D01*
X243012Y167045D01*
X242515Y166186D01*
X241814Y165484D01*
X240955Y164988D01*
X239996Y164732D01*
X239004D01*
X238045Y164988D01*
X237186Y165484D01*
X236485Y166186D01*
X235988Y167045D01*
X235732Y168004D01*
Y168996D01*
X235988Y169955D01*
X236485Y170814D01*
X237186Y171516D01*
X238045Y172012D01*
X239004Y172268D01*
D02*
G37*
G36*
X131506Y166253D02*
X132494D01*
X133449Y165997D01*
X134304Y165503D01*
X135003Y164804D01*
X135497Y163949D01*
X135753Y162994D01*
Y162006D01*
X135497Y161051D01*
X135003Y160196D01*
X134304Y159497D01*
X133449Y159003D01*
X132494Y158747D01*
X131506D01*
X130552Y159003D01*
X129696Y159497D01*
X128997Y160196D01*
X128503Y161051D01*
X128247Y162006D01*
Y162994D01*
X128503Y163949D01*
X128997Y164804D01*
X129696Y165503D01*
X130552Y165997D01*
X131506Y166253D01*
D02*
G37*
G36*
X239004Y162268D02*
X239996D01*
X240955Y162012D01*
X241814Y161516D01*
X242515Y160814D01*
X243012Y159955D01*
X243268Y158996D01*
Y158004D01*
X243012Y157045D01*
X242515Y156186D01*
X241814Y155484D01*
X240955Y154988D01*
X239996Y154732D01*
X239004D01*
X238045Y154988D01*
X237186Y155484D01*
X236485Y156186D01*
X235988Y157045D01*
X235732Y158004D01*
Y158996D01*
X235988Y159955D01*
X236485Y160814D01*
X237186Y161516D01*
X238045Y162012D01*
X239004Y162268D01*
D02*
G37*
G36*
X161506Y156253D02*
X162494D01*
X163449Y155997D01*
X164304Y155503D01*
X165003Y154804D01*
X165497Y153948D01*
X165753Y152994D01*
Y152006D01*
X165497Y151051D01*
X165003Y150196D01*
X164304Y149497D01*
X163449Y149003D01*
X162494Y148747D01*
X161506D01*
X160552Y149003D01*
X159696Y149497D01*
X158997Y150196D01*
X158503Y151051D01*
X158247Y152006D01*
Y152994D01*
X158503Y153948D01*
X158997Y154804D01*
X159696Y155503D01*
X160552Y155997D01*
X161506Y156253D01*
D02*
G37*
G36*
X239004Y152269D02*
X239996D01*
X240955Y152012D01*
X241814Y151516D01*
X242515Y150814D01*
X243012Y149955D01*
X243268Y148996D01*
Y148004D01*
X243012Y147045D01*
X242515Y146186D01*
X241814Y145484D01*
X240955Y144988D01*
X239996Y144731D01*
X239004D01*
X238045Y144988D01*
X237186Y145484D01*
X236485Y146186D01*
X235988Y147045D01*
X235732Y148004D01*
Y148996D01*
X235988Y149955D01*
X236485Y150814D01*
X237186Y151516D01*
X238045Y152012D01*
X239004Y152269D01*
D02*
G37*
G36*
X125626Y141657D02*
X128783D01*
Y138500D01*
X125626D01*
Y141657D01*
D02*
G37*
G36*
X129783D02*
X132941D01*
Y138500D01*
X129783D01*
Y141657D01*
D02*
G37*
G36*
X239004Y142269D02*
X239996D01*
X240955Y142012D01*
X241814Y141516D01*
X242515Y140814D01*
X243012Y139955D01*
X243268Y138996D01*
Y138004D01*
X243012Y137045D01*
X242515Y136186D01*
X241814Y135484D01*
X240955Y134988D01*
X239996Y134731D01*
X239004D01*
X238045Y134988D01*
X237186Y135484D01*
X236485Y136186D01*
X235988Y137045D01*
X235732Y138004D01*
Y138996D01*
X235988Y139955D01*
X236485Y140814D01*
X237186Y141516D01*
X238045Y142012D01*
X239004Y142269D01*
D02*
G37*
G36*
X125626Y137500D02*
X128783D01*
Y134343D01*
X125626D01*
Y137500D01*
D02*
G37*
G36*
X129783D02*
X132941D01*
Y134343D01*
X129783D01*
Y137500D01*
D02*
G37*
G36*
X239004Y132269D02*
X239996D01*
X240955Y132012D01*
X241814Y131516D01*
X242515Y130814D01*
X243012Y129955D01*
X243268Y128996D01*
Y128004D01*
X243012Y127045D01*
X242515Y126186D01*
X241814Y125484D01*
X240955Y124988D01*
X239996Y124732D01*
X239004D01*
X238045Y124988D01*
X237186Y125484D01*
X236485Y126186D01*
X235988Y127045D01*
X235732Y128004D01*
Y128996D01*
X235988Y129955D01*
X236485Y130814D01*
X237186Y131516D01*
X238045Y132012D01*
X239004Y132269D01*
D02*
G37*
G36*
X152188Y126859D02*
X158906D01*
Y120141D01*
X152188D01*
Y126859D01*
D02*
G37*
G36*
X239004Y122268D02*
X239996D01*
X240955Y122012D01*
X241814Y121516D01*
X242515Y120814D01*
X243012Y119955D01*
X243268Y118996D01*
Y118004D01*
X243012Y117045D01*
X242515Y116186D01*
X241814Y115484D01*
X240955Y114988D01*
X239996Y114732D01*
X239004D01*
X238045Y114988D01*
X237186Y115484D01*
X236485Y116186D01*
X235988Y117045D01*
X235732Y118004D01*
Y118996D01*
X235988Y119955D01*
X236485Y120814D01*
X237186Y121516D01*
X238045Y122012D01*
X239004Y122268D01*
D02*
G37*
G36*
X164261Y112458D02*
X165172D01*
X166051Y112222D01*
X166840Y111767D01*
X167483Y111123D01*
X167938Y110335D01*
X168174Y109455D01*
Y108545D01*
X167938Y107666D01*
X167483Y106877D01*
X166840Y106233D01*
X166051Y105778D01*
X165172Y105543D01*
X164261D01*
X163382Y105778D01*
X162594Y106233D01*
X161950Y106877D01*
X161495Y107666D01*
X161259Y108545D01*
Y109455D01*
X161495Y110335D01*
X161950Y111123D01*
X162594Y111767D01*
X163382Y112222D01*
X164261Y112458D01*
D02*
G37*
G36*
X238967Y112550D02*
X240033D01*
X241063Y112274D01*
X241987Y111741D01*
X242741Y110987D01*
X243274Y110063D01*
X243550Y109033D01*
Y107967D01*
X243274Y106937D01*
X242741Y106013D01*
X241987Y105259D01*
X241063Y104726D01*
X240033Y104450D01*
X238967D01*
X237937Y104726D01*
X237013Y105259D01*
X236259Y106013D01*
X235726Y106937D01*
X235450Y107967D01*
Y109033D01*
X235726Y110063D01*
X236259Y110987D01*
X237013Y111741D01*
X237937Y112274D01*
X238967Y112550D01*
D02*
G37*
G36*
X179004Y142269D02*
X179996D01*
X180955Y142012D01*
X181814Y141516D01*
X182516Y140814D01*
X183012Y139955D01*
X183268Y138996D01*
Y138004D01*
X183012Y137045D01*
X182516Y136186D01*
X181814Y135484D01*
X180955Y134988D01*
X179996Y134731D01*
X179004D01*
X178045Y134988D01*
X177186Y135484D01*
X176484Y136186D01*
X175988Y137045D01*
X175732Y138004D01*
Y138996D01*
X175988Y139955D01*
X176484Y140814D01*
X177186Y141516D01*
X178045Y142012D01*
X179004Y142269D01*
D02*
G37*
G36*
Y132269D02*
X179996D01*
X180955Y132012D01*
X181814Y131516D01*
X182516Y130814D01*
X183012Y129955D01*
X183268Y128996D01*
Y128004D01*
X183012Y127045D01*
X182516Y126186D01*
X181814Y125484D01*
X180955Y124988D01*
X179996Y124732D01*
X179004D01*
X178045Y124988D01*
X177186Y125484D01*
X176484Y126186D01*
X175988Y127045D01*
X175732Y128004D01*
Y128996D01*
X175988Y129955D01*
X176484Y130814D01*
X177186Y131516D01*
X178045Y132012D01*
X179004Y132269D01*
D02*
G37*
G36*
Y122268D02*
X179996D01*
X180955Y122012D01*
X181814Y121516D01*
X182516Y120814D01*
X183012Y119955D01*
X183268Y118996D01*
Y118004D01*
X183012Y117045D01*
X182516Y116186D01*
X181814Y115484D01*
X180955Y114988D01*
X179996Y114732D01*
X179004D01*
X178045Y114988D01*
X177186Y115484D01*
X176484Y116186D01*
X175988Y117045D01*
X175732Y118004D01*
Y118996D01*
X175988Y119955D01*
X176484Y120814D01*
X177186Y121516D01*
X178045Y122012D01*
X179004Y122268D01*
D02*
G37*
%LPD*%
D19*
X161295Y288858D02*
D03*
X135705D02*
D03*
X161295Y271142D02*
D03*
D20*
X135705D02*
D03*
D28*
X171300Y201800D02*
X166200Y196700D01*
X165200Y159200D02*
X162000D01*
X205162Y106000D02*
Y113400D01*
X211900Y120138D02*
X205162Y113400D01*
X211900Y120138D02*
Y167100D01*
X184700Y194300D01*
X170400D01*
X164447Y188347D01*
X159900D01*
X157847Y190400D01*
Y198347D01*
X162000Y202500D02*
X157847Y198347D01*
X162000Y162500D02*
X135547Y136047D01*
Y123500D02*
Y136047D01*
X158283Y138000D02*
X129283Y109000D01*
X164717Y138000D02*
X158283D01*
X211462Y102400D02*
Y106000D01*
Y102400D02*
X209362Y100300D01*
X199519D01*
X185269Y114550D01*
Y188831D01*
X181400Y192700D01*
X174700D01*
X168747Y186747D01*
X158300D01*
X156247Y188800D01*
Y206747D01*
X162000Y212500D02*
X156247Y206747D01*
X162000Y159200D02*
Y162500D01*
X168600Y155800D02*
X165200Y159200D01*
X168600Y112950D02*
Y155800D01*
X183950Y97600D02*
X168600Y112950D01*
X209439Y97600D02*
X183950D01*
X217761Y105922D02*
X209439Y97600D01*
X217761Y105922D02*
Y106000D01*
X166200Y196700D02*
X165939Y196439D01*
X166200Y196700D02*
Y216000D01*
X164600Y217600D01*
X158100D01*
X154600Y214100D01*
Y181700D02*
Y214100D01*
X158800Y177500D02*
X154600Y181700D01*
X167200Y177500D02*
X158800D01*
X170400Y174300D02*
X167200Y177500D01*
X180000Y174300D02*
X170400D01*
X183669Y170631D02*
X180000Y174300D01*
X183669Y152669D02*
Y170631D01*
Y152669D02*
X179500Y148500D01*
X165939Y196439D02*
X162000Y192500D01*
X171300Y201800D02*
Y240000D01*
X174500Y243200D02*
X171300Y240000D01*
X180700Y243200D02*
X174500D01*
X225500Y288000D02*
X180700Y243200D01*
X186000Y258500D02*
X179500D01*
X215500Y288000D02*
X186000Y258500D01*
X179500Y168500D02*
X173400D01*
X172400Y167500D01*
X147000D01*
X132000Y152500D01*
X162000Y172500D02*
X132000D01*
D29*
X235500Y288000D02*
D03*
X225500D02*
D03*
X215500D02*
D03*
X195500D02*
D03*
X205500D02*
D03*
D30*
X185500D02*
D03*
D31*
X158453Y257000D02*
D03*
X135547Y123500D02*
D03*
D32*
X138453Y257000D02*
D03*
X155547Y123500D02*
D03*
D33*
X179500Y188500D02*
D03*
X239500Y248500D02*
D03*
Y238500D02*
D03*
Y228500D02*
D03*
Y218500D02*
D03*
Y208500D02*
D03*
Y198500D02*
D03*
Y188500D02*
D03*
Y178500D02*
D03*
Y168500D02*
D03*
Y158500D02*
D03*
Y148500D02*
D03*
Y138500D02*
D03*
Y128500D02*
D03*
Y118500D02*
D03*
X179500D02*
D03*
Y128500D02*
D03*
Y138500D02*
D03*
Y148500D02*
D03*
Y158500D02*
D03*
Y168500D02*
D03*
Y178500D02*
D03*
Y198500D02*
D03*
Y208500D02*
D03*
Y218500D02*
D03*
Y228500D02*
D03*
Y238500D02*
D03*
Y248500D02*
D03*
Y258500D02*
D03*
D34*
X162000Y212500D02*
D03*
D35*
Y202500D02*
D03*
Y192500D02*
D03*
Y182500D02*
D03*
Y172500D02*
D03*
Y162500D02*
D03*
Y152500D02*
D03*
X132000Y212500D02*
D03*
Y202500D02*
D03*
Y192500D02*
D03*
Y182500D02*
D03*
Y172500D02*
D03*
Y162500D02*
D03*
Y152500D02*
D03*
D36*
X239500Y258500D02*
D03*
D37*
Y108500D02*
D03*
X179500D02*
D03*
X239500Y268500D02*
D03*
X179500D02*
D03*
D38*
X129283Y138000D02*
D03*
Y109000D02*
D03*
Y229000D02*
D03*
Y242000D02*
D03*
D39*
X164717Y138000D02*
D03*
Y109000D02*
D03*
Y229000D02*
D03*
Y242000D02*
D03*
D40*
X211462Y106000D02*
D03*
X217761D02*
D03*
X205162D02*
D03*
D41*
X208312Y123000D02*
D03*
M02*
