M48
;Layer_Color=9474304
;FILE_FORMAT=2:5
INCH,LZ
;TYPE=PLATED
T1F00S00C0.03150
T2F00S00C0.03346
T3F00S00C0.03543
T4F00S00C0.03898
T5F00S00C0.03937
T6F00S00C0.05118
;TYPE=NON_PLATED
T7F00S00C0.06500
%
T01
X0214453Y01235
X0234453
X0231547Y0257
X0211547
T02
X0205283Y0109
Y0138
X0240717
Y0109
Y0229
Y0242
X0205283
Y0229
T03
X0208Y01525
X0238
Y01625
Y01725
Y01825
Y01925
Y02025
Y02125
X0208
Y02025
Y01925
Y01825
Y01725
Y01625
T04
X0208705Y0271142
Y0288858
X0234295
Y0271142
T05
X01305Y01185
Y01285
Y01385
Y01485
X01905
Y01385
Y01285
Y01185
Y01585
Y01685
Y01785
Y01885
Y01985
Y02085
Y02185
Y02285
Y02385
Y02485
Y02585
X01305
Y02485
Y02385
Y02285
Y02185
Y02085
Y01985
Y01885
Y01785
Y01685
Y01585
T06
X01645Y0288
X01745
X01845
X01545
X01445
X01345
T07
X01305Y01085
X01905
Y02685
X01305
M30
