G04*
G04 #@! TF.GenerationSoftware,Altium Limited,Altium Designer,21.9.1 (22)*
G04*
G04 Layer_Physical_Order=2*
G04 Layer_Color=16711680*
%FSLAX25Y25*%
%MOIN*%
G70*
G04*
G04 #@! TF.SameCoordinates,E890526F-5ADA-4EAC-AB85-53BCF1FA7B61*
G04*
G04*
G04 #@! TF.FilePolarity,Positive*
G04*
G01*
G75*
%ADD19C,0.06063*%
%ADD20R,0.06063X0.06063*%
%ADD28C,0.00800*%
%ADD29C,0.07087*%
%ADD30R,0.07087X0.07087*%
%ADD31C,0.05118*%
%ADD32R,0.05118X0.05118*%
%ADD33C,0.05937*%
%ADD34R,0.05906X0.05906*%
%ADD35C,0.05906*%
%ADD36R,0.05937X0.05937*%
%ADD37C,0.06500*%
%ADD38R,0.05315X0.05315*%
%ADD39C,0.05315*%
%ADD40R,0.04724X0.04724*%
%ADD41R,0.03937X0.04921*%
G36*
X252000Y96000D02*
X118000D01*
Y294000D01*
X252000D01*
Y96000D01*
D02*
G37*
%LPC*%
G36*
X189043Y292543D02*
X185000D01*
Y288500D01*
X189043D01*
Y292543D01*
D02*
G37*
G36*
X184000D02*
X179957D01*
Y288500D01*
X184000D01*
Y292543D01*
D02*
G37*
G36*
X234800Y292690D02*
X233791D01*
X232816Y292429D01*
X231943Y291924D01*
X231229Y291211D01*
X230725Y290337D01*
X230464Y289363D01*
Y288354D01*
X230725Y287379D01*
X231229Y286506D01*
X231943Y285792D01*
X232816Y285288D01*
X233791Y285027D01*
X234800D01*
X235774Y285288D01*
X236648Y285792D01*
X237361Y286506D01*
X237866Y287379D01*
X238127Y288354D01*
Y289363D01*
X237866Y290337D01*
X237361Y291211D01*
X236648Y291924D01*
X235774Y292429D01*
X234800Y292690D01*
D02*
G37*
G36*
X209209D02*
X208200D01*
X207226Y292429D01*
X206352Y291924D01*
X205639Y291211D01*
X205134Y290337D01*
X204873Y289363D01*
Y288354D01*
X205134Y287379D01*
X205639Y286506D01*
X206352Y285792D01*
X207226Y285288D01*
X208200Y285027D01*
X209209D01*
X210184Y285288D01*
X211057Y285792D01*
X211771Y286506D01*
X212275Y287379D01*
X212536Y288354D01*
Y289363D01*
X212275Y290337D01*
X211771Y291211D01*
X211057Y291924D01*
X210184Y292429D01*
X209209Y292690D01*
D02*
G37*
G36*
X175072Y292343D02*
X173928D01*
X172824Y292047D01*
X171833Y291476D01*
X171025Y290667D01*
X170453Y289676D01*
X170157Y288572D01*
Y287428D01*
X170453Y286323D01*
X171025Y285333D01*
X171833Y284524D01*
X172824Y283953D01*
X173928Y283657D01*
X175072D01*
X176176Y283953D01*
X177167Y284524D01*
X177975Y285333D01*
X178547Y286323D01*
X178843Y287428D01*
Y288572D01*
X178547Y289676D01*
X177975Y290667D01*
X177167Y291476D01*
X176176Y292047D01*
X175072Y292343D01*
D02*
G37*
G36*
X165072D02*
X163928D01*
X162824Y292047D01*
X161833Y291476D01*
X161024Y290667D01*
X160453Y289676D01*
X160157Y288572D01*
Y287428D01*
X160453Y286323D01*
X161024Y285333D01*
X161833Y284524D01*
X162824Y283953D01*
X163928Y283657D01*
X165072D01*
X166176Y283953D01*
X167167Y284524D01*
X167975Y285333D01*
X168547Y286323D01*
X168843Y287428D01*
Y288572D01*
X168547Y289676D01*
X167975Y290667D01*
X167167Y291476D01*
X166176Y292047D01*
X165072Y292343D01*
D02*
G37*
G36*
X135072D02*
X133928D01*
X132824Y292047D01*
X131833Y291476D01*
X131025Y290667D01*
X130453Y289676D01*
X130157Y288572D01*
Y287428D01*
X130453Y286323D01*
X131025Y285333D01*
X131833Y284524D01*
X132824Y283953D01*
X133928Y283657D01*
X135072D01*
X136176Y283953D01*
X137167Y284524D01*
X137976Y285333D01*
X138547Y286323D01*
X138843Y287428D01*
Y288572D01*
X138547Y289676D01*
X137976Y290667D01*
X137167Y291476D01*
X136176Y292047D01*
X135072Y292343D01*
D02*
G37*
G36*
X189043Y287500D02*
X185000D01*
Y283457D01*
X189043D01*
Y287500D01*
D02*
G37*
G36*
X184000D02*
X179957D01*
Y283457D01*
X184000D01*
Y287500D01*
D02*
G37*
G36*
X238127Y274973D02*
X230464D01*
Y267310D01*
X238127D01*
Y274973D01*
D02*
G37*
G36*
X209209D02*
X208200D01*
X207226Y274712D01*
X206352Y274208D01*
X205639Y273494D01*
X205134Y272621D01*
X204873Y271646D01*
Y270637D01*
X205134Y269663D01*
X205639Y268789D01*
X206352Y268076D01*
X207226Y267571D01*
X208200Y267310D01*
X209209D01*
X210184Y267571D01*
X211057Y268076D01*
X211771Y268789D01*
X212275Y269663D01*
X212536Y270637D01*
Y271646D01*
X212275Y272621D01*
X211771Y273494D01*
X211057Y274208D01*
X210184Y274712D01*
X209209Y274973D01*
D02*
G37*
G36*
X191033Y272550D02*
X189967D01*
X188937Y272274D01*
X188013Y271741D01*
X187259Y270987D01*
X186726Y270063D01*
X186450Y269033D01*
Y267967D01*
X186726Y266937D01*
X187259Y266013D01*
X188013Y265259D01*
X188937Y264726D01*
X189967Y264450D01*
X191033D01*
X192063Y264726D01*
X192987Y265259D01*
X193741Y266013D01*
X194274Y266937D01*
X194550Y267967D01*
Y269033D01*
X194274Y270063D01*
X193741Y270987D01*
X192987Y271741D01*
X192063Y272274D01*
X191033Y272550D01*
D02*
G37*
G36*
X131033D02*
X129967D01*
X128937Y272274D01*
X128013Y271741D01*
X127259Y270987D01*
X126726Y270063D01*
X126450Y269033D01*
Y267967D01*
X126726Y266937D01*
X127259Y266013D01*
X128013Y265259D01*
X128937Y264726D01*
X129967Y264450D01*
X131033D01*
X132063Y264726D01*
X132987Y265259D01*
X133741Y266013D01*
X134274Y266937D01*
X134550Y267967D01*
Y269033D01*
X134274Y270063D01*
X133741Y270987D01*
X132987Y271741D01*
X132063Y272274D01*
X131033Y272550D01*
D02*
G37*
G36*
X155072Y292343D02*
X153928D01*
X152824Y292047D01*
X151833Y291476D01*
X151024Y290667D01*
X150453Y289676D01*
X150157Y288572D01*
Y287428D01*
X150453Y286323D01*
X151024Y285333D01*
X151833Y284524D01*
X152824Y283953D01*
X153928Y283657D01*
X155072D01*
X156176Y283953D01*
X156582Y284187D01*
X183135Y257635D01*
X183532Y257370D01*
X184000Y257277D01*
X186926D01*
X186988Y257045D01*
X187484Y256186D01*
X188186Y255485D01*
X189045Y254988D01*
X190004Y254731D01*
X190996D01*
X191955Y254988D01*
X192814Y255485D01*
X193516Y256186D01*
X194012Y257045D01*
X194269Y258004D01*
Y258996D01*
X194012Y259955D01*
X193516Y260814D01*
X192814Y261515D01*
X191955Y262012D01*
X190996Y262268D01*
X190004D01*
X189045Y262012D01*
X188186Y261515D01*
X187484Y260814D01*
X186988Y259955D01*
X186926Y259723D01*
X184507D01*
X158313Y285917D01*
X158547Y286323D01*
X158843Y287428D01*
Y288572D01*
X158547Y289676D01*
X157975Y290667D01*
X157167Y291476D01*
X156176Y292047D01*
X155072Y292343D01*
D02*
G37*
G36*
X134268Y262268D02*
X126732D01*
Y254731D01*
X134268D01*
Y262268D01*
D02*
G37*
G36*
X234906Y260359D02*
X228188D01*
Y253641D01*
X234906D01*
Y260359D01*
D02*
G37*
G36*
X211989D02*
X211105D01*
X210251Y260130D01*
X209485Y259688D01*
X208859Y259063D01*
X208417Y258296D01*
X208188Y257442D01*
Y256558D01*
X208417Y255703D01*
X208859Y254938D01*
X209485Y254312D01*
X210251Y253870D01*
X211105Y253641D01*
X211989D01*
X212844Y253870D01*
X213610Y254312D01*
X214235Y254938D01*
X214677Y255703D01*
X214906Y256558D01*
Y257442D01*
X214677Y258296D01*
X214235Y259063D01*
X213610Y259688D01*
X212844Y260130D01*
X211989Y260359D01*
D02*
G37*
G36*
X191023Y252468D02*
X191000D01*
Y249000D01*
X194468D01*
Y249023D01*
X194198Y250032D01*
X193676Y250937D01*
X192937Y251676D01*
X192032Y252198D01*
X191023Y252468D01*
D02*
G37*
G36*
X130996Y252269D02*
X130004D01*
X129045Y252012D01*
X128186Y251516D01*
X127484Y250814D01*
X126988Y249955D01*
X126732Y248996D01*
Y248004D01*
X126988Y247045D01*
X127484Y246186D01*
X128186Y245484D01*
X129045Y244988D01*
X130004Y244731D01*
X130996D01*
X131955Y244988D01*
X132814Y245484D01*
X133516Y246186D01*
X134012Y247045D01*
X134268Y248004D01*
Y248996D01*
X134012Y249955D01*
X133516Y250814D01*
X132814Y251516D01*
X131955Y252012D01*
X130996Y252269D01*
D02*
G37*
G36*
X244174Y245458D02*
X237259D01*
Y238543D01*
X244174D01*
Y245458D01*
D02*
G37*
G36*
X145072Y292343D02*
X143928D01*
X142824Y292047D01*
X141833Y291476D01*
X141024Y290667D01*
X140453Y289676D01*
X140157Y288572D01*
Y287428D01*
X140453Y286323D01*
X141024Y285333D01*
X141833Y284524D01*
X142824Y283953D01*
X143928Y283657D01*
X145072D01*
X146176Y283953D01*
X146582Y284187D01*
X188435Y242335D01*
X188514Y242282D01*
X188495Y241694D01*
X188186Y241515D01*
X187484Y240814D01*
X186988Y239955D01*
X186732Y238996D01*
Y238004D01*
X186988Y237045D01*
X187484Y236186D01*
X188186Y235485D01*
X189045Y234988D01*
X190004Y234732D01*
X190996D01*
X191955Y234988D01*
X192814Y235485D01*
X193516Y236186D01*
X194012Y237045D01*
X194269Y238004D01*
Y238996D01*
X194012Y239955D01*
X193516Y240814D01*
X192853Y241476D01*
X192888Y241791D01*
X192937Y241976D01*
X197093D01*
X199576Y239493D01*
Y199700D01*
X199670Y199232D01*
X199935Y198835D01*
X202935Y195835D01*
X204620Y194150D01*
X204503Y193948D01*
X204247Y192994D01*
Y192006D01*
X204503Y191051D01*
X204997Y190196D01*
X205696Y189497D01*
X206552Y189003D01*
X207506Y188747D01*
X208210D01*
X208396Y188298D01*
X208087Y187924D01*
X203200D01*
X202732Y187830D01*
X202335Y187565D01*
X198693Y183923D01*
X158600D01*
X158132Y183830D01*
X157735Y183565D01*
X151374Y177204D01*
X151109Y176807D01*
X151016Y176339D01*
Y109261D01*
X149471D01*
Y102739D01*
X155008D01*
Y109261D01*
X153463D01*
Y175832D01*
X159107Y181476D01*
X187494D01*
X187685Y181015D01*
X187484Y180814D01*
X186988Y179955D01*
X186732Y178996D01*
Y178004D01*
X186988Y177045D01*
X187484Y176186D01*
X187716Y175954D01*
X187525Y175492D01*
X174369D01*
X173900Y175399D01*
X173503Y175134D01*
X168735Y170365D01*
X168470Y169968D01*
X168377Y169500D01*
Y124968D01*
X165312Y121904D01*
X164850Y122095D01*
Y126162D01*
X158526D01*
Y119838D01*
X162593D01*
X162784Y119376D01*
X157673Y114265D01*
X157408Y113868D01*
X157315Y113400D01*
Y109261D01*
X155770D01*
Y102739D01*
X161307D01*
Y109261D01*
X159762D01*
Y112893D01*
X170465Y123596D01*
X170730Y123993D01*
X170824Y124462D01*
Y168993D01*
X174875Y173045D01*
X185219D01*
X185376Y172545D01*
X185170Y172237D01*
X185076Y171769D01*
Y152700D01*
X185170Y152232D01*
X185435Y151835D01*
X187108Y150162D01*
X186988Y149955D01*
X186732Y148996D01*
Y148004D01*
X186988Y147045D01*
X187484Y146186D01*
X188186Y145484D01*
X189045Y144988D01*
X190004Y144731D01*
X190996D01*
X191955Y144988D01*
X192814Y145484D01*
X193516Y146186D01*
X194012Y147045D01*
X194269Y148004D01*
Y148996D01*
X194012Y149955D01*
X193516Y150814D01*
X192814Y151516D01*
X191955Y152012D01*
X190996Y152269D01*
X190004D01*
X189045Y152012D01*
X188838Y151892D01*
X187523Y153207D01*
Y155494D01*
X187985Y155685D01*
X188186Y155484D01*
X189045Y154988D01*
X190004Y154732D01*
X190996D01*
X191955Y154988D01*
X192814Y155484D01*
X193516Y156186D01*
X194012Y157045D01*
X194269Y158004D01*
Y158996D01*
X194012Y159955D01*
X193516Y160814D01*
X192814Y161516D01*
X191955Y162012D01*
X190996Y162268D01*
X190004D01*
X189045Y162012D01*
X188186Y161516D01*
X187985Y161315D01*
X187523Y161506D01*
Y165494D01*
X187985Y165685D01*
X188186Y165484D01*
X189045Y164988D01*
X190004Y164732D01*
X190996D01*
X191955Y164988D01*
X192814Y165484D01*
X193516Y166186D01*
X194012Y167045D01*
X194074Y167277D01*
X196093D01*
X196735Y166635D01*
X197132Y166370D01*
X197600Y166277D01*
X206036D01*
X206170Y165777D01*
X205696Y165503D01*
X204997Y164804D01*
X204503Y163949D01*
X204247Y162994D01*
Y162006D01*
X204503Y161051D01*
X204620Y160850D01*
X200535Y156765D01*
X200270Y156368D01*
X200177Y155900D01*
Y133400D01*
X200270Y132932D01*
X200535Y132535D01*
X206635Y126435D01*
X207032Y126170D01*
X207500Y126076D01*
X211094D01*
Y120141D01*
X217812D01*
Y126076D01*
X230146D01*
X231361Y124862D01*
X231323Y124797D01*
X231094Y123942D01*
Y123058D01*
X231323Y122203D01*
X231361Y122138D01*
X224046Y114823D01*
X192669D01*
X192535Y115323D01*
X192814Y115484D01*
X193516Y116186D01*
X194012Y117045D01*
X194269Y118004D01*
Y118996D01*
X194012Y119955D01*
X193516Y120814D01*
X192814Y121516D01*
X191955Y122012D01*
X190996Y122268D01*
X190004D01*
X189045Y122012D01*
X188186Y121516D01*
X187484Y120814D01*
X186988Y119955D01*
X186732Y118996D01*
Y118004D01*
X186988Y117045D01*
X187484Y116186D01*
X188186Y115484D01*
X188465Y115323D01*
X188331Y114823D01*
X175800D01*
X175332Y114730D01*
X174935Y114465D01*
X169093Y108624D01*
X167606D01*
Y109261D01*
X162069D01*
Y102739D01*
X167606D01*
Y106176D01*
X169600D01*
X170068Y106270D01*
X170465Y106535D01*
X176307Y112376D01*
X188114D01*
X188248Y111876D01*
X188013Y111741D01*
X187259Y110987D01*
X186726Y110063D01*
X186450Y109033D01*
Y107967D01*
X186726Y106937D01*
X187259Y106013D01*
X188013Y105259D01*
X188937Y104726D01*
X189967Y104450D01*
X191033D01*
X192063Y104726D01*
X192987Y105259D01*
X193741Y106013D01*
X194274Y106937D01*
X194550Y107967D01*
Y109033D01*
X194274Y110063D01*
X193741Y110987D01*
X192987Y111741D01*
X192752Y111876D01*
X192886Y112376D01*
X203217D01*
X203351Y111876D01*
X203161Y111767D01*
X202517Y111123D01*
X202062Y110335D01*
X201826Y109455D01*
Y108545D01*
X202062Y107666D01*
X202517Y106877D01*
X203161Y106233D01*
X203949Y105778D01*
X204828Y105543D01*
X205739D01*
X206618Y105778D01*
X207406Y106233D01*
X208050Y106877D01*
X208505Y107666D01*
X208741Y108545D01*
Y109455D01*
X208505Y110335D01*
X208050Y111123D01*
X207406Y111767D01*
X207216Y111876D01*
X207350Y112376D01*
X224553D01*
X225021Y112470D01*
X225418Y112735D01*
X233091Y120408D01*
X233156Y120370D01*
X234011Y120141D01*
X234895D01*
X235749Y120370D01*
X236515Y120812D01*
X237141Y121438D01*
X237583Y122203D01*
X237812Y123058D01*
Y123942D01*
X237583Y124797D01*
X237141Y125563D01*
X236515Y126188D01*
X235749Y126630D01*
X234895Y126859D01*
X234011D01*
X233156Y126630D01*
X233091Y126592D01*
X231518Y128165D01*
X231121Y128430D01*
X230653Y128524D01*
X208007D01*
X202624Y133907D01*
Y135117D01*
X203085Y135308D01*
X203161Y135233D01*
X203949Y134778D01*
X204828Y134543D01*
X205739D01*
X206618Y134778D01*
X207406Y135233D01*
X208050Y135877D01*
X208505Y136665D01*
X208535Y136776D01*
X228993D01*
X239493Y126277D01*
Y112458D01*
X237259D01*
Y105543D01*
X244174D01*
Y112458D01*
X241940D01*
Y126783D01*
X241847Y127252D01*
X241582Y127649D01*
X230365Y138865D01*
X229968Y139130D01*
X229500Y139224D01*
X208535D01*
X208505Y139334D01*
X208050Y140123D01*
X207406Y140767D01*
X206618Y141222D01*
X205739Y141457D01*
X204828D01*
X203949Y141222D01*
X203161Y140767D01*
X203085Y140692D01*
X202624Y140883D01*
Y155393D01*
X206350Y159119D01*
X206552Y159003D01*
X207506Y158747D01*
X208494D01*
X209449Y159003D01*
X210304Y159497D01*
X211003Y160196D01*
X211497Y161051D01*
X211753Y162006D01*
Y162994D01*
X211497Y163949D01*
X211003Y164804D01*
X210304Y165503D01*
X209830Y165777D01*
X209964Y166277D01*
X222493D01*
X234619Y154150D01*
X234503Y153948D01*
X234247Y152994D01*
Y152006D01*
X234503Y151051D01*
X234997Y150196D01*
X235696Y149497D01*
X236551Y149003D01*
X237506Y148747D01*
X238494D01*
X239448Y149003D01*
X240304Y149497D01*
X241003Y150196D01*
X241497Y151051D01*
X241753Y152006D01*
Y152994D01*
X241497Y153948D01*
X241003Y154804D01*
X240304Y155503D01*
X239448Y155997D01*
X238494Y156253D01*
X237506D01*
X236551Y155997D01*
X236350Y155880D01*
X223865Y168365D01*
X223468Y168630D01*
X223000Y168723D01*
X209964D01*
X209830Y169223D01*
X210304Y169497D01*
X211003Y170196D01*
X211497Y171052D01*
X211557Y171276D01*
X234443D01*
X234503Y171052D01*
X234997Y170196D01*
X235696Y169497D01*
X236551Y169003D01*
X237506Y168747D01*
X238494D01*
X239448Y169003D01*
X240304Y169497D01*
X241003Y170196D01*
X241497Y171052D01*
X241753Y172006D01*
Y172994D01*
X241497Y173949D01*
X241003Y174804D01*
X240304Y175503D01*
X239448Y175997D01*
X238494Y176253D01*
X237506D01*
X236551Y175997D01*
X235696Y175503D01*
X234997Y174804D01*
X234503Y173949D01*
X234443Y173723D01*
X211557D01*
X211497Y173949D01*
X211003Y174804D01*
X210840Y174967D01*
X211031Y175429D01*
X211200D01*
X211668Y175522D01*
X212065Y175788D01*
X216265Y179988D01*
X216530Y180385D01*
X216623Y180853D01*
Y214100D01*
X216530Y214568D01*
X216265Y214965D01*
X211265Y219965D01*
X210868Y220230D01*
X210400Y220323D01*
X206400D01*
X205932Y220230D01*
X205535Y219965D01*
X202935Y217365D01*
X202670Y216968D01*
X202576Y216500D01*
Y200851D01*
X202077Y200584D01*
X202024Y200619D01*
Y226731D01*
X202492Y226870D01*
X202523Y226870D01*
X203161Y226233D01*
X203949Y225778D01*
X204828Y225542D01*
X205739D01*
X206618Y225778D01*
X207406Y226233D01*
X208050Y226877D01*
X208505Y227665D01*
X208741Y228545D01*
Y229455D01*
X208505Y230334D01*
X208050Y231123D01*
X207406Y231767D01*
X206618Y232222D01*
X205739Y232457D01*
X204828D01*
X203949Y232222D01*
X203161Y231767D01*
X202523Y231130D01*
X202492Y231130D01*
X202024Y231269D01*
Y239731D01*
X202492Y239870D01*
X202523Y239870D01*
X203161Y239233D01*
X203949Y238778D01*
X204828Y238543D01*
X205739D01*
X206618Y238778D01*
X207406Y239233D01*
X208050Y239877D01*
X208505Y240666D01*
X208741Y241545D01*
Y242455D01*
X208505Y243335D01*
X208050Y244123D01*
X207406Y244767D01*
X206618Y245222D01*
X205739Y245458D01*
X204828D01*
X203949Y245222D01*
X203161Y244767D01*
X202517Y244123D01*
X202062Y243335D01*
X201826Y242455D01*
Y241545D01*
X201875Y241363D01*
X201426Y241104D01*
X198465Y244065D01*
X198068Y244330D01*
X197600Y244424D01*
X192376D01*
X192242Y244923D01*
X192937Y245324D01*
X193676Y246063D01*
X194198Y246968D01*
X194468Y247977D01*
Y248000D01*
X190500D01*
Y248500D01*
X190000D01*
Y252468D01*
X189978D01*
X188968Y252198D01*
X188063Y251676D01*
X187324Y250937D01*
X186802Y250032D01*
X186531Y249023D01*
Y248406D01*
X186031Y248199D01*
X148313Y285917D01*
X148547Y286323D01*
X148843Y287428D01*
Y288572D01*
X148547Y289676D01*
X147976Y290667D01*
X147167Y291476D01*
X146176Y292047D01*
X145072Y292343D01*
D02*
G37*
G36*
X130996Y242268D02*
X130004D01*
X129045Y242012D01*
X128186Y241515D01*
X127484Y240814D01*
X126988Y239955D01*
X126732Y238996D01*
Y238004D01*
X126988Y237045D01*
X127484Y236186D01*
X128186Y235485D01*
X129045Y234988D01*
X130004Y234732D01*
X130996D01*
X131955Y234988D01*
X132814Y235485D01*
X133516Y236186D01*
X134012Y237045D01*
X134268Y238004D01*
Y238996D01*
X134012Y239955D01*
X133516Y240814D01*
X132814Y241515D01*
X131955Y242012D01*
X130996Y242268D01*
D02*
G37*
G36*
X131023Y232469D02*
X131000D01*
Y229000D01*
X134468D01*
Y229023D01*
X134198Y230032D01*
X133676Y230937D01*
X132937Y231676D01*
X132032Y232198D01*
X131023Y232469D01*
D02*
G37*
G36*
X130000D02*
X129978D01*
X128968Y232198D01*
X128063Y231676D01*
X127324Y230937D01*
X126802Y230032D01*
X126532Y229023D01*
Y229000D01*
X130000D01*
Y232469D01*
D02*
G37*
G36*
X244174Y232457D02*
X237259D01*
Y225542D01*
X244174D01*
Y232457D01*
D02*
G37*
G36*
X190996Y232269D02*
X190004D01*
X189045Y232012D01*
X188186Y231516D01*
X187484Y230814D01*
X186988Y229955D01*
X186732Y228996D01*
Y228004D01*
X186988Y227045D01*
X187484Y226186D01*
X188186Y225484D01*
X189045Y224988D01*
X190004Y224731D01*
X190996D01*
X191955Y224988D01*
X192814Y225484D01*
X193516Y226186D01*
X194012Y227045D01*
X194269Y228004D01*
Y228996D01*
X194012Y229955D01*
X193516Y230814D01*
X192814Y231516D01*
X191955Y232012D01*
X190996Y232269D01*
D02*
G37*
G36*
X134468Y228000D02*
X131000D01*
Y224532D01*
X131023D01*
X132032Y224802D01*
X132937Y225324D01*
X133676Y226063D01*
X134198Y226968D01*
X134468Y227977D01*
Y228000D01*
D02*
G37*
G36*
X130000D02*
X126532D01*
Y227977D01*
X126802Y226968D01*
X127324Y226063D01*
X128063Y225324D01*
X128968Y224802D01*
X129978Y224532D01*
X130000D01*
Y228000D01*
D02*
G37*
G36*
X190996Y222269D02*
X190004D01*
X189045Y222012D01*
X188186Y221515D01*
X187484Y220814D01*
X186988Y219955D01*
X186732Y218996D01*
Y218004D01*
X186988Y217045D01*
X187484Y216186D01*
X188186Y215484D01*
X189045Y214988D01*
X190004Y214732D01*
X190996D01*
X191955Y214988D01*
X192814Y215484D01*
X193516Y216186D01*
X194012Y217045D01*
X194269Y218004D01*
Y218996D01*
X194012Y219955D01*
X193516Y220814D01*
X192814Y221515D01*
X191955Y222012D01*
X190996Y222269D01*
D02*
G37*
G36*
X130996D02*
X130004D01*
X129045Y222012D01*
X128186Y221515D01*
X127484Y220814D01*
X126988Y219955D01*
X126732Y218996D01*
Y218004D01*
X126988Y217045D01*
X127484Y216186D01*
X128186Y215484D01*
X129045Y214988D01*
X130004Y214732D01*
X130996D01*
X131955Y214988D01*
X132814Y215484D01*
X133516Y216186D01*
X134012Y217045D01*
X134268Y218004D01*
Y218996D01*
X134012Y219955D01*
X133516Y220814D01*
X132814Y221515D01*
X131955Y222012D01*
X130996Y222269D01*
D02*
G37*
G36*
X238494Y216253D02*
X237506D01*
X236551Y215997D01*
X235696Y215503D01*
X234997Y214804D01*
X234503Y213948D01*
X234247Y212994D01*
Y212006D01*
X234503Y211052D01*
X234997Y210196D01*
X235696Y209497D01*
X236551Y209003D01*
X237506Y208747D01*
X238494D01*
X239448Y209003D01*
X240304Y209497D01*
X241003Y210196D01*
X241497Y211052D01*
X241753Y212006D01*
Y212994D01*
X241497Y213948D01*
X241003Y214804D01*
X240304Y215503D01*
X239448Y215997D01*
X238494Y216253D01*
D02*
G37*
G36*
X190996Y212268D02*
X190004D01*
X189045Y212012D01*
X188186Y211515D01*
X187484Y210814D01*
X186988Y209955D01*
X186732Y208996D01*
Y208004D01*
X186988Y207045D01*
X187484Y206186D01*
X188186Y205485D01*
X189045Y204988D01*
X190004Y204731D01*
X190996D01*
X191955Y204988D01*
X192814Y205485D01*
X193516Y206186D01*
X194012Y207045D01*
X194269Y208004D01*
Y208996D01*
X194012Y209955D01*
X193516Y210814D01*
X192814Y211515D01*
X191955Y212012D01*
X190996Y212268D01*
D02*
G37*
G36*
X130996D02*
X130004D01*
X129045Y212012D01*
X128186Y211515D01*
X127484Y210814D01*
X126988Y209955D01*
X126732Y208996D01*
Y208004D01*
X126988Y207045D01*
X127484Y206186D01*
X128186Y205485D01*
X129045Y204988D01*
X130004Y204731D01*
X130996D01*
X131955Y204988D01*
X132814Y205485D01*
X133516Y206186D01*
X134012Y207045D01*
X134268Y208004D01*
Y208996D01*
X134012Y209955D01*
X133516Y210814D01*
X132814Y211515D01*
X131955Y212012D01*
X130996Y212268D01*
D02*
G37*
G36*
X238494Y206253D02*
X237506D01*
X236551Y205997D01*
X235696Y205503D01*
X234997Y204804D01*
X234503Y203948D01*
X234247Y202994D01*
Y202006D01*
X234503Y201051D01*
X234997Y200196D01*
X235696Y199497D01*
X236551Y199003D01*
X237506Y198747D01*
X238494D01*
X239448Y199003D01*
X240304Y199497D01*
X241003Y200196D01*
X241497Y201051D01*
X241753Y202006D01*
Y202994D01*
X241497Y203948D01*
X241003Y204804D01*
X240304Y205503D01*
X239448Y205997D01*
X238494Y206253D01*
D02*
G37*
G36*
X190996Y202269D02*
X190004D01*
X189045Y202012D01*
X188186Y201516D01*
X187484Y200814D01*
X186988Y199955D01*
X186732Y198996D01*
Y198004D01*
X186988Y197045D01*
X187484Y196186D01*
X188186Y195484D01*
X189045Y194988D01*
X190004Y194731D01*
X190996D01*
X191955Y194988D01*
X192814Y195484D01*
X193516Y196186D01*
X194012Y197045D01*
X194269Y198004D01*
Y198996D01*
X194012Y199955D01*
X193516Y200814D01*
X192814Y201516D01*
X191955Y202012D01*
X190996Y202269D01*
D02*
G37*
G36*
X130996D02*
X130004D01*
X129045Y202012D01*
X128186Y201516D01*
X127484Y200814D01*
X126988Y199955D01*
X126732Y198996D01*
Y198004D01*
X126988Y197045D01*
X127484Y196186D01*
X128186Y195484D01*
X129045Y194988D01*
X130004Y194731D01*
X130996D01*
X131955Y194988D01*
X132814Y195484D01*
X133516Y196186D01*
X134012Y197045D01*
X134268Y198004D01*
Y198996D01*
X134012Y199955D01*
X133516Y200814D01*
X132814Y201516D01*
X131955Y202012D01*
X130996Y202269D01*
D02*
G37*
G36*
X238494Y196253D02*
X237506D01*
X236551Y195997D01*
X235696Y195503D01*
X234997Y194804D01*
X234503Y193948D01*
X234247Y192994D01*
Y192006D01*
X234503Y191051D01*
X234997Y190196D01*
X235696Y189497D01*
X236551Y189003D01*
X237506Y188747D01*
X238494D01*
X239448Y189003D01*
X240304Y189497D01*
X241003Y190196D01*
X241497Y191051D01*
X241753Y192006D01*
Y192994D01*
X241497Y193948D01*
X241003Y194804D01*
X240304Y195503D01*
X239448Y195997D01*
X238494Y196253D01*
D02*
G37*
G36*
X190996Y192269D02*
X190004D01*
X189045Y192012D01*
X188186Y191516D01*
X187484Y190814D01*
X186988Y189955D01*
X186732Y188996D01*
Y188004D01*
X186988Y187045D01*
X187484Y186186D01*
X188186Y185484D01*
X189045Y184988D01*
X190004Y184731D01*
X190996D01*
X191955Y184988D01*
X192814Y185484D01*
X193516Y186186D01*
X194012Y187045D01*
X194269Y188004D01*
Y188996D01*
X194012Y189955D01*
X193516Y190814D01*
X192814Y191516D01*
X191955Y192012D01*
X190996Y192269D01*
D02*
G37*
G36*
X130996D02*
X130004D01*
X129045Y192012D01*
X128186Y191516D01*
X127484Y190814D01*
X126988Y189955D01*
X126732Y188996D01*
Y188004D01*
X126988Y187045D01*
X127484Y186186D01*
X128186Y185484D01*
X129045Y184988D01*
X130004Y184731D01*
X130996D01*
X131955Y184988D01*
X132814Y185484D01*
X133516Y186186D01*
X134012Y187045D01*
X134268Y188004D01*
Y188996D01*
X134012Y189955D01*
X133516Y190814D01*
X132814Y191516D01*
X131955Y192012D01*
X130996Y192269D01*
D02*
G37*
G36*
X238520Y186453D02*
X238500D01*
Y183000D01*
X241953D01*
Y183020D01*
X241683Y184026D01*
X241163Y184927D01*
X240427Y185663D01*
X239526Y186183D01*
X238520Y186453D01*
D02*
G37*
G36*
X237500D02*
X237480D01*
X236474Y186183D01*
X235573Y185663D01*
X234837Y184927D01*
X234317Y184026D01*
X234047Y183020D01*
Y183000D01*
X237500D01*
Y186453D01*
D02*
G37*
G36*
X241953Y182000D02*
X238500D01*
Y178547D01*
X238520D01*
X239526Y178817D01*
X240427Y179337D01*
X241163Y180073D01*
X241683Y180974D01*
X241953Y181980D01*
Y182000D01*
D02*
G37*
G36*
X237500D02*
X234047D01*
Y181980D01*
X234317Y180974D01*
X234837Y180073D01*
X235573Y179337D01*
X236474Y178817D01*
X237480Y178547D01*
X237500D01*
Y182000D01*
D02*
G37*
G36*
X130996Y182269D02*
X130004D01*
X129045Y182012D01*
X128186Y181516D01*
X127484Y180814D01*
X126988Y179955D01*
X126732Y178996D01*
Y178004D01*
X126988Y177045D01*
X127484Y176186D01*
X128186Y175484D01*
X129045Y174988D01*
X130004Y174732D01*
X130996D01*
X131955Y174988D01*
X132814Y175484D01*
X133516Y176186D01*
X134012Y177045D01*
X134268Y178004D01*
Y178996D01*
X134012Y179955D01*
X133516Y180814D01*
X132814Y181516D01*
X131955Y182012D01*
X130996Y182269D01*
D02*
G37*
G36*
Y172268D02*
X130004D01*
X129045Y172012D01*
X128186Y171516D01*
X127484Y170814D01*
X126988Y169955D01*
X126732Y168996D01*
Y168004D01*
X126988Y167045D01*
X127484Y166186D01*
X128186Y165484D01*
X129045Y164988D01*
X130004Y164732D01*
X130996D01*
X131955Y164988D01*
X132814Y165484D01*
X133516Y166186D01*
X134012Y167045D01*
X134268Y168004D01*
Y168996D01*
X134012Y169955D01*
X133516Y170814D01*
X132814Y171516D01*
X131955Y172012D01*
X130996Y172268D01*
D02*
G37*
G36*
X238494Y166253D02*
X237506D01*
X236551Y165997D01*
X235696Y165503D01*
X234997Y164804D01*
X234503Y163949D01*
X234247Y162994D01*
Y162006D01*
X234503Y161051D01*
X234997Y160196D01*
X235696Y159497D01*
X236551Y159003D01*
X237506Y158747D01*
X238494D01*
X239448Y159003D01*
X240304Y159497D01*
X241003Y160196D01*
X241497Y161051D01*
X241753Y162006D01*
Y162994D01*
X241497Y163949D01*
X241003Y164804D01*
X240304Y165503D01*
X239448Y165997D01*
X238494Y166253D01*
D02*
G37*
G36*
X130996Y162268D02*
X130004D01*
X129045Y162012D01*
X128186Y161516D01*
X127484Y160814D01*
X126988Y159955D01*
X126732Y158996D01*
Y158004D01*
X126988Y157045D01*
X127484Y156186D01*
X128186Y155484D01*
X129045Y154988D01*
X130004Y154732D01*
X130996D01*
X131955Y154988D01*
X132814Y155484D01*
X133516Y156186D01*
X134012Y157045D01*
X134268Y158004D01*
Y158996D01*
X134012Y159955D01*
X133516Y160814D01*
X132814Y161516D01*
X131955Y162012D01*
X130996Y162268D01*
D02*
G37*
G36*
X208494Y156253D02*
X207506D01*
X206552Y155997D01*
X205696Y155503D01*
X204997Y154804D01*
X204503Y153948D01*
X204247Y152994D01*
Y152006D01*
X204503Y151051D01*
X204997Y150196D01*
X205696Y149497D01*
X206552Y149003D01*
X207506Y148747D01*
X208494D01*
X209449Y149003D01*
X210304Y149497D01*
X211003Y150196D01*
X211497Y151051D01*
X211753Y152006D01*
Y152994D01*
X211497Y153948D01*
X211003Y154804D01*
X210304Y155503D01*
X209449Y155997D01*
X208494Y156253D01*
D02*
G37*
G36*
X130996Y152269D02*
X130004D01*
X129045Y152012D01*
X128186Y151516D01*
X127484Y150814D01*
X126988Y149955D01*
X126732Y148996D01*
Y148004D01*
X126988Y147045D01*
X127484Y146186D01*
X128186Y145484D01*
X129045Y144988D01*
X130004Y144731D01*
X130996D01*
X131955Y144988D01*
X132814Y145484D01*
X133516Y146186D01*
X134012Y147045D01*
X134268Y148004D01*
Y148996D01*
X134012Y149955D01*
X133516Y150814D01*
X132814Y151516D01*
X131955Y152012D01*
X130996Y152269D01*
D02*
G37*
G36*
X244374Y141657D02*
X241217D01*
Y138500D01*
X244374D01*
Y141657D01*
D02*
G37*
G36*
X240217D02*
X237059D01*
Y138500D01*
X240217D01*
Y141657D01*
D02*
G37*
G36*
X190996Y142269D02*
X190004D01*
X189045Y142012D01*
X188186Y141516D01*
X187484Y140814D01*
X186988Y139955D01*
X186732Y138996D01*
Y138004D01*
X186988Y137045D01*
X187484Y136186D01*
X188186Y135484D01*
X189045Y134988D01*
X190004Y134731D01*
X190996D01*
X191955Y134988D01*
X192814Y135484D01*
X193516Y136186D01*
X194012Y137045D01*
X194269Y138004D01*
Y138996D01*
X194012Y139955D01*
X193516Y140814D01*
X192814Y141516D01*
X191955Y142012D01*
X190996Y142269D01*
D02*
G37*
G36*
X130996D02*
X130004D01*
X129045Y142012D01*
X128186Y141516D01*
X127484Y140814D01*
X126988Y139955D01*
X126732Y138996D01*
Y138004D01*
X126988Y137045D01*
X127484Y136186D01*
X128186Y135484D01*
X129045Y134988D01*
X130004Y134731D01*
X130996D01*
X131955Y134988D01*
X132814Y135484D01*
X133516Y136186D01*
X134012Y137045D01*
X134268Y138004D01*
Y138996D01*
X134012Y139955D01*
X133516Y140814D01*
X132814Y141516D01*
X131955Y142012D01*
X130996Y142269D01*
D02*
G37*
G36*
X244374Y137500D02*
X241217D01*
Y134343D01*
X244374D01*
Y137500D01*
D02*
G37*
G36*
X240217D02*
X237059D01*
Y134343D01*
X240217D01*
Y137500D01*
D02*
G37*
G36*
X190996Y132269D02*
X190004D01*
X189045Y132012D01*
X188186Y131516D01*
X187484Y130814D01*
X186988Y129955D01*
X186732Y128996D01*
Y128004D01*
X186988Y127045D01*
X187484Y126186D01*
X188186Y125484D01*
X189045Y124988D01*
X190004Y124732D01*
X190996D01*
X191955Y124988D01*
X192814Y125484D01*
X193516Y126186D01*
X194012Y127045D01*
X194269Y128004D01*
Y128996D01*
X194012Y129955D01*
X193516Y130814D01*
X192814Y131516D01*
X191955Y132012D01*
X190996Y132269D01*
D02*
G37*
G36*
X130996D02*
X130004D01*
X129045Y132012D01*
X128186Y131516D01*
X127484Y130814D01*
X126988Y129955D01*
X126732Y128996D01*
Y128004D01*
X126988Y127045D01*
X127484Y126186D01*
X128186Y125484D01*
X129045Y124988D01*
X130004Y124732D01*
X130996D01*
X131955Y124988D01*
X132814Y125484D01*
X133516Y126186D01*
X134012Y127045D01*
X134268Y128004D01*
Y128996D01*
X134012Y129955D01*
X133516Y130814D01*
X132814Y131516D01*
X131955Y132012D01*
X130996Y132269D01*
D02*
G37*
G36*
Y122268D02*
X130004D01*
X129045Y122012D01*
X128186Y121516D01*
X127484Y120814D01*
X126988Y119955D01*
X126732Y118996D01*
Y118004D01*
X126988Y117045D01*
X127484Y116186D01*
X128186Y115484D01*
X129045Y114988D01*
X130004Y114732D01*
X130996D01*
X131955Y114988D01*
X132814Y115484D01*
X133516Y116186D01*
X134012Y117045D01*
X134268Y118004D01*
Y118996D01*
X134012Y119955D01*
X133516Y120814D01*
X132814Y121516D01*
X131955Y122012D01*
X130996Y122268D01*
D02*
G37*
G36*
X131033Y112550D02*
X129967D01*
X128937Y112274D01*
X128013Y111741D01*
X127259Y110987D01*
X126726Y110063D01*
X126450Y109033D01*
Y107967D01*
X126726Y106937D01*
X127259Y106013D01*
X128013Y105259D01*
X128937Y104726D01*
X129967Y104450D01*
X131033D01*
X132063Y104726D01*
X132987Y105259D01*
X133741Y106013D01*
X134274Y106937D01*
X134550Y107967D01*
Y109033D01*
X134274Y110063D01*
X133741Y110987D01*
X132987Y111741D01*
X132063Y112274D01*
X131033Y112550D01*
D02*
G37*
%LPD*%
G36*
X205207Y185015D02*
X204997Y184804D01*
X204503Y183949D01*
X204247Y182994D01*
Y182006D01*
X204503Y181052D01*
X204997Y180196D01*
X205217Y179976D01*
X205009Y179476D01*
X198084D01*
X197616Y179383D01*
X197219Y179118D01*
X193892Y175791D01*
X193838Y175802D01*
X193761Y175894D01*
X193614Y176356D01*
X194012Y177045D01*
X194269Y178004D01*
Y178996D01*
X194012Y179955D01*
X193516Y180814D01*
X193315Y181015D01*
X193506Y181476D01*
X199200D01*
X199668Y181570D01*
X200065Y181835D01*
X203707Y185477D01*
X205016D01*
X205207Y185015D01*
D02*
G37*
G36*
X205160Y174967D02*
X204997Y174804D01*
X204503Y173949D01*
X204247Y172994D01*
Y172006D01*
X204503Y171052D01*
X204997Y170196D01*
X205696Y169497D01*
X206170Y169223D01*
X206036Y168723D01*
X198107D01*
X197465Y169365D01*
X197068Y169630D01*
X196600Y169723D01*
X194074D01*
X194012Y169955D01*
X193516Y170814D01*
X193346Y170983D01*
X193538Y171445D01*
X199816D01*
X200284Y171538D01*
X200681Y171803D01*
X204307Y175429D01*
X204969D01*
X205160Y174967D01*
D02*
G37*
D19*
X208705Y288858D02*
D03*
X234295D02*
D03*
X208705Y271142D02*
D03*
D20*
X234295D02*
D03*
D28*
X200800Y199700D02*
X203800Y196700D01*
X164838Y107400D02*
X169600D01*
X240717Y109000D02*
Y126783D01*
X229500Y138000D02*
X240717Y126783D01*
X205283Y138000D02*
X229500D01*
X200800Y199700D02*
Y240000D01*
X197600Y243200D02*
X200800Y240000D01*
X189300Y243200D02*
X197600D01*
X144500Y288000D02*
X189300Y243200D01*
X201400Y155900D02*
X208000Y162500D01*
X201400Y133400D02*
Y155900D01*
Y133400D02*
X207500Y127300D01*
X230653D01*
X234453Y123500D01*
X208000Y212500D02*
X213753Y206747D01*
Y182353D02*
Y206747D01*
X209653Y178253D02*
X213753Y182353D01*
X198084Y178253D02*
X209653D01*
X194100Y174269D02*
X198084Y178253D01*
X174369Y174269D02*
X194100D01*
X169600Y169500D02*
X174369Y174269D01*
X169600Y124462D02*
Y169500D01*
X158538Y113400D02*
X169600Y124462D01*
X158538Y106000D02*
Y113400D01*
X203800Y196700D02*
X208000Y192500D01*
X203800Y196700D02*
Y216500D01*
X206400Y219100D01*
X210400D01*
X215400Y214100D01*
Y180853D02*
Y214100D01*
X211200Y176653D02*
X215400Y180853D01*
X203800Y176653D02*
X211200D01*
X199816Y172669D02*
X203800Y176653D01*
X187200Y172669D02*
X199816D01*
X186300Y171769D02*
X187200Y172669D01*
X186300Y152700D02*
Y171769D01*
Y152700D02*
X190500Y148500D01*
X152239Y106000D02*
Y176339D01*
X158600Y182700D01*
X199200D01*
X203200Y186700D01*
X208600D01*
X212153Y190253D01*
Y198347D01*
X208000Y202500D02*
X212153Y198347D01*
X184000Y258500D02*
X190500D01*
X154500Y288000D02*
X184000Y258500D01*
X190500Y168500D02*
X196600D01*
X197600Y167500D01*
X223000D01*
X238000Y152500D01*
X164838Y106000D02*
Y107400D01*
X169600D02*
X175800Y113600D01*
X224553D01*
X234453Y123500D01*
X208000Y172500D02*
X238000D01*
D29*
X134500Y288000D02*
D03*
X144500D02*
D03*
X154500D02*
D03*
X174500D02*
D03*
X164500D02*
D03*
D30*
X184500D02*
D03*
D31*
X211547Y257000D02*
D03*
X234453Y123500D02*
D03*
D32*
X231547Y257000D02*
D03*
X214453Y123500D02*
D03*
D33*
X190500Y188500D02*
D03*
X130500Y248500D02*
D03*
Y238500D02*
D03*
Y228500D02*
D03*
Y218500D02*
D03*
Y208500D02*
D03*
Y198500D02*
D03*
Y188500D02*
D03*
Y178500D02*
D03*
Y168500D02*
D03*
Y158500D02*
D03*
Y148500D02*
D03*
Y138500D02*
D03*
Y128500D02*
D03*
Y118500D02*
D03*
X190500D02*
D03*
Y128500D02*
D03*
Y138500D02*
D03*
Y148500D02*
D03*
Y158500D02*
D03*
Y168500D02*
D03*
Y178500D02*
D03*
Y198500D02*
D03*
Y208500D02*
D03*
Y218500D02*
D03*
Y228500D02*
D03*
Y238500D02*
D03*
Y248500D02*
D03*
Y258500D02*
D03*
D34*
X208000Y212500D02*
D03*
D35*
Y202500D02*
D03*
Y192500D02*
D03*
Y182500D02*
D03*
Y172500D02*
D03*
Y162500D02*
D03*
Y152500D02*
D03*
X238000Y212500D02*
D03*
Y202500D02*
D03*
Y192500D02*
D03*
Y182500D02*
D03*
Y172500D02*
D03*
Y162500D02*
D03*
Y152500D02*
D03*
D36*
X130500Y258500D02*
D03*
D37*
Y108500D02*
D03*
X190500D02*
D03*
X130500Y268500D02*
D03*
X190500D02*
D03*
D38*
X240717Y138000D02*
D03*
Y109000D02*
D03*
Y229000D02*
D03*
Y242000D02*
D03*
D39*
X205283Y138000D02*
D03*
Y109000D02*
D03*
Y229000D02*
D03*
Y242000D02*
D03*
D40*
X161688Y123000D02*
D03*
D41*
X164838Y106000D02*
D03*
X152239D02*
D03*
X158538D02*
D03*
M02*
