G04*
G04 #@! TF.GenerationSoftware,Altium Limited,Altium Designer,21.9.1 (22)*
G04*
G04 Layer_Color=8388736*
%FSLAX25Y25*%
%MOIN*%
G70*
G04*
G04 #@! TF.SameCoordinates,61359596-3549-415F-9DB3-B4CDDCDC9052*
G04*
G04*
G04 #@! TF.FilePolarity,Negative*
G04*
G01*
G75*
%ADD15C,0.07887*%
%ADD16R,0.07887X0.07887*%
%ADD17C,0.05918*%
%ADD18R,0.05918X0.05918*%
%ADD19C,0.06063*%
%ADD20R,0.06063X0.06063*%
%ADD21C,0.06737*%
%ADD22R,0.06706X0.06706*%
%ADD23C,0.06706*%
%ADD24R,0.06737X0.06737*%
%ADD25C,0.07300*%
%ADD26R,0.06115X0.06115*%
%ADD27C,0.06115*%
D15*
X134500Y288000D02*
D03*
X144500D02*
D03*
X154500D02*
D03*
X174500D02*
D03*
X164500D02*
D03*
D16*
X184500D02*
D03*
D17*
X211547Y257000D02*
D03*
X234453Y123500D02*
D03*
D18*
X231547Y257000D02*
D03*
X214453Y123500D02*
D03*
D19*
X208705Y288858D02*
D03*
X234295D02*
D03*
X208705Y271142D02*
D03*
D20*
X234295D02*
D03*
D21*
X190500Y188500D02*
D03*
X130500Y248500D02*
D03*
Y238500D02*
D03*
Y228500D02*
D03*
Y218500D02*
D03*
Y208500D02*
D03*
Y198500D02*
D03*
Y188500D02*
D03*
Y178500D02*
D03*
Y168500D02*
D03*
Y158500D02*
D03*
Y148500D02*
D03*
Y138500D02*
D03*
Y128500D02*
D03*
Y118500D02*
D03*
X190500D02*
D03*
Y128500D02*
D03*
Y138500D02*
D03*
Y148500D02*
D03*
Y158500D02*
D03*
Y168500D02*
D03*
Y178500D02*
D03*
Y198500D02*
D03*
Y208500D02*
D03*
Y218500D02*
D03*
Y228500D02*
D03*
Y238500D02*
D03*
Y248500D02*
D03*
Y258500D02*
D03*
D22*
X208000Y212500D02*
D03*
D23*
Y202500D02*
D03*
Y192500D02*
D03*
Y182500D02*
D03*
Y172500D02*
D03*
Y162500D02*
D03*
Y152500D02*
D03*
X238000Y212500D02*
D03*
Y202500D02*
D03*
Y192500D02*
D03*
Y182500D02*
D03*
Y172500D02*
D03*
Y162500D02*
D03*
Y152500D02*
D03*
D24*
X130500Y258500D02*
D03*
D25*
Y108500D02*
D03*
X190500D02*
D03*
X130500Y268500D02*
D03*
X190500D02*
D03*
D26*
X240717Y138000D02*
D03*
Y109000D02*
D03*
Y229000D02*
D03*
Y242000D02*
D03*
D27*
X205283Y138000D02*
D03*
Y109000D02*
D03*
Y229000D02*
D03*
Y242000D02*
D03*
M02*
