G04*
G04 #@! TF.GenerationSoftware,Altium Limited,Altium Designer,21.9.1 (22)*
G04*
G04 Layer_Color=255*
%FSLAX25Y25*%
%MOIN*%
G70*
G04*
G04 #@! TF.SameCoordinates,351BDD15-2B00-492A-8363-C63AB1A4302F*
G04*
G04*
G04 #@! TF.FilePolarity,Positive*
G04*
G01*
G75*
%ADD19C,0.06063*%
%ADD20R,0.06063X0.06063*%
%ADD29C,0.07087*%
%ADD30R,0.07087X0.07087*%
%ADD31C,0.05118*%
%ADD32R,0.05118X0.05118*%
%ADD33C,0.05937*%
%ADD34R,0.05906X0.05906*%
%ADD35C,0.05906*%
%ADD36R,0.05937X0.05937*%
%ADD37C,0.06500*%
%ADD38R,0.05315X0.05315*%
%ADD39C,0.05315*%
D19*
X208705Y288858D02*
D03*
X234295D02*
D03*
X208705Y271142D02*
D03*
D20*
X234295D02*
D03*
D29*
X134500Y288000D02*
D03*
X144500D02*
D03*
X154500D02*
D03*
X174500D02*
D03*
X164500D02*
D03*
D30*
X184500D02*
D03*
D31*
X211547Y257000D02*
D03*
X234453Y123500D02*
D03*
D32*
X231547Y257000D02*
D03*
X214453Y123500D02*
D03*
D33*
X190500Y188500D02*
D03*
X130500Y248500D02*
D03*
Y238500D02*
D03*
Y228500D02*
D03*
Y218500D02*
D03*
Y208500D02*
D03*
Y198500D02*
D03*
Y188500D02*
D03*
Y178500D02*
D03*
Y168500D02*
D03*
Y158500D02*
D03*
Y148500D02*
D03*
Y138500D02*
D03*
Y128500D02*
D03*
Y118500D02*
D03*
X190500D02*
D03*
Y128500D02*
D03*
Y138500D02*
D03*
Y148500D02*
D03*
Y158500D02*
D03*
Y168500D02*
D03*
Y178500D02*
D03*
Y198500D02*
D03*
Y208500D02*
D03*
Y218500D02*
D03*
Y228500D02*
D03*
Y238500D02*
D03*
Y248500D02*
D03*
Y258500D02*
D03*
D34*
X208000Y212500D02*
D03*
D35*
Y202500D02*
D03*
Y192500D02*
D03*
Y182500D02*
D03*
Y172500D02*
D03*
Y162500D02*
D03*
Y152500D02*
D03*
X238000Y212500D02*
D03*
Y202500D02*
D03*
Y192500D02*
D03*
Y182500D02*
D03*
Y172500D02*
D03*
Y162500D02*
D03*
Y152500D02*
D03*
D36*
X130500Y258500D02*
D03*
D37*
Y108500D02*
D03*
X190500D02*
D03*
X130500Y268500D02*
D03*
X190500D02*
D03*
D38*
X240717Y138000D02*
D03*
Y109000D02*
D03*
Y229000D02*
D03*
Y242000D02*
D03*
D39*
X205283Y138000D02*
D03*
Y109000D02*
D03*
Y229000D02*
D03*
Y242000D02*
D03*
M02*
