G04*
G04 #@! TF.GenerationSoftware,Altium Limited,Altium Designer,21.9.1 (22)*
G04*
G04 Layer_Color=32768*
%FSLAX25Y25*%
%MOIN*%
G70*
G04*
G04 #@! TF.SameCoordinates,E890526F-5ADA-4EAC-AB85-53BCF1FA7B61*
G04*
G04*
G04 #@! TF.FilePolarity,Positive*
G04*
G01*
G75*
%ADD44C,0.00394*%
%ADD46C,0.00197*%
D44*
X219579Y257000D02*
X223516D01*
X221547Y255032D02*
Y258969D01*
X221032Y182500D02*
X224969D01*
X223000Y180532D02*
Y184469D01*
Y136031D02*
Y139968D01*
X221031Y138000D02*
X224968D01*
X223000Y107032D02*
Y110969D01*
X221032Y109000D02*
X224969D01*
X223000Y227032D02*
Y230969D01*
X221032Y229000D02*
X224969D01*
X224453Y121531D02*
Y125469D01*
X222484Y123500D02*
X226421D01*
X223000Y240032D02*
Y243969D01*
X221032Y242000D02*
X224969D01*
D46*
X129106Y298413D02*
X189894D01*
Y275106D02*
Y298413D01*
X129106Y275106D02*
Y298413D01*
Y275106D02*
X189894D01*
X207157Y248594D02*
Y265406D01*
X235937Y248594D02*
Y265406D01*
X207157Y248594D02*
X235937D01*
X207157Y265406D02*
X235937D01*
X203906Y143720D02*
Y221280D01*
X242094Y143720D02*
Y221280D01*
X203906D02*
X242094D01*
X203906Y143720D02*
X242094D01*
X124516Y274484D02*
X196484D01*
Y102516D02*
Y274484D01*
X124516Y102516D02*
X196484D01*
X124516D02*
Y274484D01*
X202232Y132882D02*
Y143118D01*
Y132882D02*
X243768D01*
X202232Y143118D02*
X243768D01*
Y132882D02*
Y143118D01*
X202232Y103882D02*
Y114118D01*
Y103882D02*
X243768D01*
X202232Y114118D02*
X243768D01*
Y103882D02*
Y114118D01*
X202232Y223882D02*
Y234118D01*
Y223882D02*
X243768D01*
X202232Y234118D02*
X243768D01*
Y223882D02*
Y234118D01*
X210063Y115094D02*
X238843D01*
X210063Y131906D02*
X238843D01*
X210063Y115094D02*
Y131906D01*
X238843Y115094D02*
Y131906D01*
X202232Y236882D02*
Y247118D01*
Y236882D02*
X243768D01*
X202232Y247118D02*
X243768D01*
Y236882D02*
Y247118D01*
M02*
