G04*
G04 #@! TF.GenerationSoftware,Altium Limited,Altium Designer,21.9.1 (22)*
G04*
G04 Layer_Color=16711935*
%FSLAX25Y25*%
%MOIN*%
G70*
G04*
G04 #@! TF.SameCoordinates,E890526F-5ADA-4EAC-AB85-53BCF1FA7B61*
G04*
G04*
G04 #@! TF.FilePolarity,Positive*
G04*
G01*
G75*
%ADD11C,0.00787*%
G36*
X216018Y279778D02*
X213969D01*
Y280000D01*
X216018D01*
Y279778D01*
D02*
G37*
G36*
X217689Y277474D02*
X217409D01*
Y277714D01*
X217405Y277707D01*
X217390Y277692D01*
X217372Y277667D01*
X217343Y277638D01*
X217310Y277601D01*
X217274Y277569D01*
X217230Y277536D01*
X217187Y277507D01*
X217179Y277503D01*
X217165Y277496D01*
X217136Y277485D01*
X217099Y277470D01*
X217056Y277456D01*
X217005Y277445D01*
X216946Y277437D01*
X216881Y277434D01*
X216841D01*
X216823Y277437D01*
X216797Y277441D01*
X216742Y277448D01*
X216677Y277463D01*
X216608Y277485D01*
X216539Y277518D01*
X216470Y277558D01*
X216466D01*
X216462Y277565D01*
X216440Y277579D01*
X216408Y277609D01*
X216368Y277645D01*
X216324Y277692D01*
X216280Y277750D01*
X216237Y277820D01*
X216200Y277896D01*
Y277900D01*
X216196Y277907D01*
X216193Y277918D01*
X216186Y277933D01*
X216178Y277954D01*
X216171Y277980D01*
X216153Y278038D01*
X216135Y278111D01*
X216120Y278191D01*
X216109Y278282D01*
X216106Y278377D01*
Y278380D01*
Y278387D01*
Y278402D01*
Y278424D01*
X216109Y278449D01*
Y278479D01*
X216116Y278544D01*
X216131Y278624D01*
X216149Y278708D01*
X216175Y278795D01*
X216208Y278883D01*
Y278886D01*
X216211Y278893D01*
X216218Y278904D01*
X216226Y278919D01*
X216251Y278959D01*
X216284Y279010D01*
X216324Y279065D01*
X216375Y279119D01*
X216433Y279174D01*
X216502Y279225D01*
X216506D01*
X216510Y279228D01*
X216521Y279236D01*
X216535Y279243D01*
X216571Y279261D01*
X216622Y279283D01*
X216684Y279305D01*
X216750Y279323D01*
X216826Y279338D01*
X216903Y279341D01*
X216928D01*
X216957Y279338D01*
X216994Y279334D01*
X217037Y279327D01*
X217085Y279316D01*
X217132Y279301D01*
X217179Y279279D01*
X217183Y279276D01*
X217201Y279268D01*
X217223Y279254D01*
X217252Y279232D01*
X217281Y279210D01*
X217318Y279181D01*
X217350Y279148D01*
X217380Y279112D01*
Y280000D01*
X217689D01*
Y277474D01*
D02*
G37*
G36*
X219181Y279338D02*
X219207D01*
X219236Y279334D01*
X219302Y279323D01*
X219374Y279305D01*
X219454Y279279D01*
X219527Y279243D01*
X219593Y279196D01*
X219600Y279188D01*
X219618Y279170D01*
X219644Y279137D01*
X219673Y279094D01*
X219702Y279039D01*
X219727Y278977D01*
X219746Y278901D01*
X219749Y278864D01*
X219753Y278821D01*
Y278813D01*
Y278799D01*
X219749Y278773D01*
X219746Y278741D01*
X219738Y278701D01*
X219727Y278660D01*
X219713Y278617D01*
X219695Y278577D01*
X219691Y278573D01*
X219684Y278559D01*
X219669Y278537D01*
X219651Y278511D01*
X219629Y278482D01*
X219600Y278453D01*
X219571Y278424D01*
X219534Y278398D01*
X219531Y278395D01*
X219516Y278387D01*
X219498Y278373D01*
X219469Y278358D01*
X219436Y278344D01*
X219396Y278326D01*
X219356Y278311D01*
X219309Y278296D01*
X219305D01*
X219290Y278293D01*
X219269Y278286D01*
X219240Y278282D01*
X219203Y278275D01*
X219156Y278267D01*
X219101Y278257D01*
X219036Y278249D01*
X219032D01*
X219018Y278246D01*
X218999D01*
X218974Y278242D01*
X218945Y278238D01*
X218908Y278231D01*
X218868Y278227D01*
X218825Y278220D01*
X218737Y278202D01*
X218643Y278184D01*
X218559Y278162D01*
X218519Y278151D01*
X218482Y278140D01*
Y278136D01*
Y278129D01*
X218479Y278107D01*
Y278082D01*
Y278067D01*
Y278060D01*
Y278056D01*
Y278053D01*
Y278031D01*
X218482Y277994D01*
X218490Y277954D01*
X218501Y277911D01*
X218519Y277867D01*
X218541Y277827D01*
X218570Y277794D01*
X218573Y277790D01*
X218592Y277776D01*
X218621Y277761D01*
X218657Y277740D01*
X218708Y277721D01*
X218766Y277703D01*
X218839Y277692D01*
X218923Y277689D01*
X218959D01*
X218996Y277692D01*
X219047Y277699D01*
X219098Y277707D01*
X219152Y277721D01*
X219203Y277740D01*
X219247Y277765D01*
X219250Y277769D01*
X219265Y277780D01*
X219283Y277798D01*
X219305Y277827D01*
X219327Y277863D01*
X219352Y277911D01*
X219374Y277969D01*
X219396Y278034D01*
X219698Y277994D01*
Y277991D01*
X219695Y277987D01*
Y277976D01*
X219691Y277962D01*
X219680Y277929D01*
X219666Y277882D01*
X219647Y277834D01*
X219625Y277783D01*
X219596Y277732D01*
X219564Y277685D01*
X219560Y277681D01*
X219545Y277667D01*
X219524Y277645D01*
X219494Y277616D01*
X219454Y277587D01*
X219407Y277558D01*
X219352Y277525D01*
X219290Y277499D01*
X219287D01*
X219283Y277496D01*
X219272Y277492D01*
X219258Y277488D01*
X219221Y277478D01*
X219170Y277467D01*
X219112Y277456D01*
X219039Y277445D01*
X218963Y277437D01*
X218876Y277434D01*
X218836D01*
X218795Y277437D01*
X218741Y277441D01*
X218679Y277448D01*
X218617Y277459D01*
X218555Y277474D01*
X218497Y277492D01*
X218490Y277496D01*
X218472Y277503D01*
X218446Y277514D01*
X218413Y277529D01*
X218377Y277550D01*
X218340Y277572D01*
X218308Y277601D01*
X218279Y277630D01*
X218275Y277634D01*
X218268Y277645D01*
X218257Y277663D01*
X218242Y277685D01*
X218224Y277718D01*
X218210Y277750D01*
X218195Y277790D01*
X218184Y277838D01*
Y277841D01*
X218180Y277852D01*
X218177Y277874D01*
X218173Y277903D01*
Y277943D01*
X218169Y277991D01*
X218166Y278053D01*
Y278122D01*
Y278537D01*
Y278540D01*
Y278555D01*
Y278577D01*
Y278606D01*
Y278639D01*
Y278679D01*
X218162Y278766D01*
Y278857D01*
X218159Y278948D01*
X218155Y278988D01*
Y279025D01*
X218151Y279057D01*
X218148Y279083D01*
Y279086D01*
X218144Y279101D01*
X218140Y279123D01*
X218129Y279152D01*
X218122Y279185D01*
X218108Y279221D01*
X218089Y279261D01*
X218071Y279301D01*
X218395D01*
X218399Y279297D01*
X218402Y279283D01*
X218410Y279265D01*
X218421Y279236D01*
X218431Y279203D01*
X218439Y279163D01*
X218446Y279119D01*
X218453Y279072D01*
X218457D01*
X218461Y279079D01*
X218482Y279097D01*
X218515Y279123D01*
X218559Y279155D01*
X218614Y279188D01*
X218668Y279225D01*
X218726Y279257D01*
X218788Y279283D01*
X218795Y279287D01*
X218817Y279290D01*
X218850Y279301D01*
X218890Y279312D01*
X218941Y279323D01*
X218999Y279330D01*
X219065Y279338D01*
X219130Y279341D01*
X219160D01*
X219181Y279338D01*
D02*
G37*
G36*
X210045D02*
X210074D01*
X210110Y279334D01*
X210147Y279330D01*
X210187Y279323D01*
X210274Y279305D01*
X210365Y279279D01*
X210453Y279243D01*
X210493Y279221D01*
X210529Y279196D01*
X210533Y279192D01*
X210536Y279188D01*
X210558Y279167D01*
X210591Y279134D01*
X210627Y279083D01*
X210667Y279021D01*
X210707Y278948D01*
X210740Y278857D01*
X210766Y278755D01*
X210460Y278708D01*
Y278712D01*
Y278715D01*
X210453Y278737D01*
X210445Y278773D01*
X210431Y278813D01*
X210413Y278857D01*
X210391Y278904D01*
X210358Y278952D01*
X210318Y278992D01*
X210311Y278995D01*
X210296Y279006D01*
X210267Y279021D01*
X210231Y279039D01*
X210183Y279057D01*
X210129Y279072D01*
X210063Y279083D01*
X209987Y279086D01*
X209950D01*
X209914Y279083D01*
X209867Y279076D01*
X209816Y279065D01*
X209761Y279050D01*
X209714Y279032D01*
X209670Y279003D01*
X209666Y278999D01*
X209652Y278988D01*
X209637Y278970D01*
X209615Y278944D01*
X209597Y278915D01*
X209579Y278879D01*
X209568Y278842D01*
X209564Y278799D01*
Y278795D01*
Y278781D01*
X209568Y278762D01*
X209575Y278737D01*
X209586Y278712D01*
X209605Y278686D01*
X209626Y278657D01*
X209659Y278635D01*
X209663Y278631D01*
X209674Y278628D01*
X209692Y278617D01*
X209721Y278606D01*
X209765Y278591D01*
X209790Y278580D01*
X209819Y278573D01*
X209852Y278562D01*
X209888Y278551D01*
X209928Y278540D01*
X209976Y278530D01*
X209979D01*
X209990Y278526D01*
X210009Y278522D01*
X210030Y278515D01*
X210059Y278508D01*
X210092Y278497D01*
X210161Y278479D01*
X210242Y278453D01*
X210318Y278431D01*
X210391Y278406D01*
X210423Y278391D01*
X210449Y278380D01*
X210456Y278377D01*
X210471Y278369D01*
X210493Y278355D01*
X210522Y278337D01*
X210555Y278311D01*
X210587Y278282D01*
X210620Y278249D01*
X210649Y278209D01*
X210653Y278205D01*
X210660Y278191D01*
X210671Y278166D01*
X210682Y278136D01*
X210693Y278100D01*
X210704Y278056D01*
X210711Y278013D01*
X210715Y277962D01*
Y277954D01*
Y277940D01*
X210711Y277918D01*
X210707Y277885D01*
X210700Y277852D01*
X210693Y277812D01*
X210678Y277776D01*
X210660Y277736D01*
X210656Y277732D01*
X210649Y277718D01*
X210638Y277699D01*
X210620Y277674D01*
X210598Y277649D01*
X210573Y277616D01*
X210544Y277587D01*
X210507Y277561D01*
X210504Y277558D01*
X210493Y277554D01*
X210478Y277543D01*
X210456Y277532D01*
X210427Y277518D01*
X210394Y277503D01*
X210354Y277488D01*
X210311Y277474D01*
X210303Y277470D01*
X210289Y277467D01*
X210263Y277459D01*
X210231Y277452D01*
X210191Y277445D01*
X210147Y277441D01*
X210096Y277434D01*
X210009D01*
X209968Y277437D01*
X209914Y277441D01*
X209856Y277448D01*
X209794Y277463D01*
X209728Y277478D01*
X209666Y277499D01*
X209663D01*
X209659Y277503D01*
X209641Y277510D01*
X209612Y277525D01*
X209575Y277543D01*
X209535Y277569D01*
X209495Y277598D01*
X209459Y277630D01*
X209426Y277667D01*
X209422Y277670D01*
X209415Y277685D01*
X209401Y277711D01*
X209383Y277740D01*
X209364Y277783D01*
X209346Y277831D01*
X209331Y277885D01*
X209317Y277947D01*
X209619Y277987D01*
Y277980D01*
X209623Y277965D01*
X209630Y277940D01*
X209641Y277907D01*
X209659Y277874D01*
X209681Y277838D01*
X209706Y277801D01*
X209743Y277769D01*
X209747Y277765D01*
X209761Y277758D01*
X209783Y277743D01*
X209816Y277729D01*
X209852Y277714D01*
X209899Y277699D01*
X209958Y277692D01*
X210019Y277689D01*
X210056D01*
X210092Y277692D01*
X210140Y277696D01*
X210187Y277707D01*
X210238Y277718D01*
X210285Y277736D01*
X210325Y277761D01*
X210329Y277765D01*
X210340Y277772D01*
X210354Y277787D01*
X210369Y277809D01*
X210387Y277831D01*
X210402Y277860D01*
X210413Y277892D01*
X210416Y277925D01*
Y277929D01*
Y277936D01*
X210413Y277947D01*
Y277962D01*
X210402Y277998D01*
X210380Y278034D01*
X210376Y278038D01*
X210373Y278042D01*
X210365Y278053D01*
X210351Y278064D01*
X210336Y278075D01*
X210314Y278089D01*
X210289Y278100D01*
X210260Y278115D01*
X210256D01*
X210249Y278118D01*
X210234Y278122D01*
X210209Y278133D01*
X210172Y278144D01*
X210125Y278155D01*
X210096Y278166D01*
X210063Y278173D01*
X210027Y278184D01*
X209987Y278195D01*
X209983D01*
X209972Y278198D01*
X209954Y278202D01*
X209932Y278209D01*
X209907Y278216D01*
X209874Y278224D01*
X209805Y278246D01*
X209728Y278267D01*
X209652Y278293D01*
X209583Y278318D01*
X209554Y278329D01*
X209528Y278340D01*
X209521Y278344D01*
X209506Y278351D01*
X209484Y278362D01*
X209452Y278380D01*
X209419Y278402D01*
X209386Y278431D01*
X209353Y278464D01*
X209324Y278500D01*
X209321Y278504D01*
X209313Y278519D01*
X209299Y278540D01*
X209284Y278573D01*
X209273Y278613D01*
X209259Y278657D01*
X209251Y278708D01*
X209248Y278766D01*
Y278773D01*
Y278792D01*
X209251Y278821D01*
X209259Y278861D01*
X209270Y278904D01*
X209288Y278952D01*
X209310Y279006D01*
X209339Y279057D01*
X209342Y279065D01*
X209357Y279079D01*
X209375Y279105D01*
X209404Y279134D01*
X209444Y279167D01*
X209488Y279203D01*
X209539Y279236D01*
X209601Y279268D01*
X209605D01*
X209608Y279272D01*
X209630Y279279D01*
X209666Y279290D01*
X209714Y279305D01*
X209772Y279319D01*
X209838Y279330D01*
X209907Y279338D01*
X209987Y279341D01*
X210019D01*
X210045Y279338D01*
D02*
G37*
G36*
X213776Y277474D02*
X213496D01*
Y277750D01*
X213492Y277747D01*
X213477Y277721D01*
X213459Y277689D01*
X213430Y277649D01*
X213401Y277609D01*
X213368Y277565D01*
X213335Y277529D01*
X213303Y277499D01*
X213299Y277496D01*
X213288Y277488D01*
X213266Y277478D01*
X213245Y277467D01*
X213215Y277456D01*
X213179Y277445D01*
X213143Y277437D01*
X213103Y277434D01*
X213077D01*
X213044Y277437D01*
X213004Y277445D01*
X212957Y277459D01*
X212906Y277478D01*
X212848Y277503D01*
X212786Y277536D01*
X212899Y277820D01*
X212902Y277816D01*
X212917Y277809D01*
X212939Y277798D01*
X212968Y277787D01*
X213001Y277776D01*
X213041Y277765D01*
X213081Y277758D01*
X213121Y277754D01*
X213139D01*
X213157Y277758D01*
X213183Y277761D01*
X213208Y277769D01*
X213241Y277780D01*
X213274Y277794D01*
X213303Y277816D01*
X213306Y277820D01*
X213317Y277827D01*
X213328Y277841D01*
X213346Y277860D01*
X213365Y277885D01*
X213383Y277914D01*
X213401Y277947D01*
X213416Y277987D01*
X213419Y277994D01*
X213423Y278016D01*
X213430Y278049D01*
X213441Y278093D01*
X213452Y278147D01*
X213459Y278209D01*
X213463Y278275D01*
X213467Y278347D01*
Y279301D01*
X213776D01*
Y277474D01*
D02*
G37*
G36*
X220736Y279338D02*
X220768Y279334D01*
X220805Y279327D01*
X220845Y279319D01*
X220888Y279312D01*
X220987Y279283D01*
X221034Y279261D01*
X221085Y279239D01*
X221136Y279210D01*
X221183Y279177D01*
X221231Y279141D01*
X221274Y279097D01*
X221278Y279094D01*
X221285Y279086D01*
X221296Y279072D01*
X221311Y279054D01*
X221325Y279028D01*
X221347Y278995D01*
X221365Y278959D01*
X221387Y278919D01*
X221409Y278872D01*
X221427Y278817D01*
X221449Y278762D01*
X221464Y278697D01*
X221478Y278631D01*
X221489Y278555D01*
X221496Y278479D01*
X221500Y278395D01*
Y278391D01*
Y278380D01*
Y278366D01*
Y278344D01*
X221496Y278318D01*
Y278289D01*
X221493Y278257D01*
X221489Y278220D01*
X221478Y278140D01*
X221460Y278053D01*
X221438Y277965D01*
X221405Y277878D01*
Y277874D01*
X221402Y277867D01*
X221394Y277856D01*
X221387Y277841D01*
X221365Y277801D01*
X221333Y277754D01*
X221289Y277699D01*
X221238Y277645D01*
X221176Y277590D01*
X221107Y277547D01*
X221103D01*
X221096Y277543D01*
X221085Y277536D01*
X221071Y277529D01*
X221052Y277521D01*
X221030Y277510D01*
X220976Y277488D01*
X220914Y277470D01*
X220838Y277452D01*
X220758Y277437D01*
X220670Y277434D01*
X220641D01*
X220619Y277437D01*
X220597D01*
X220568Y277441D01*
X220499Y277452D01*
X220423Y277470D01*
X220342Y277499D01*
X220262Y277536D01*
X220186Y277587D01*
X220182D01*
X220179Y277594D01*
X220157Y277616D01*
X220124Y277649D01*
X220084Y277696D01*
X220044Y277754D01*
X220004Y277827D01*
X219968Y277911D01*
X219942Y278009D01*
X220244Y278056D01*
Y278053D01*
X220248Y278049D01*
X220251Y278027D01*
X220262Y277994D01*
X220281Y277954D01*
X220299Y277911D01*
X220328Y277863D01*
X220361Y277820D01*
X220397Y277783D01*
X220401Y277780D01*
X220415Y277769D01*
X220441Y277754D01*
X220470Y277736D01*
X220510Y277718D01*
X220554Y277703D01*
X220605Y277692D01*
X220659Y277689D01*
X220681D01*
X220699Y277692D01*
X220739Y277696D01*
X220794Y277711D01*
X220852Y277729D01*
X220918Y277758D01*
X220979Y277801D01*
X221009Y277827D01*
X221038Y277856D01*
Y277860D01*
X221045Y277863D01*
X221052Y277874D01*
X221060Y277889D01*
X221071Y277907D01*
X221085Y277929D01*
X221096Y277954D01*
X221111Y277983D01*
X221125Y278020D01*
X221136Y278060D01*
X221151Y278104D01*
X221162Y278151D01*
X221169Y278202D01*
X221176Y278260D01*
X221183Y278322D01*
Y278387D01*
Y278391D01*
Y278402D01*
Y278424D01*
X221180Y278446D01*
Y278479D01*
X221176Y278511D01*
X221165Y278591D01*
X221151Y278679D01*
X221125Y278770D01*
X221092Y278850D01*
X221071Y278890D01*
X221045Y278923D01*
X221038Y278930D01*
X221020Y278948D01*
X220987Y278974D01*
X220947Y279003D01*
X220892Y279035D01*
X220830Y279061D01*
X220758Y279079D01*
X220717Y279083D01*
X220677Y279086D01*
X220670D01*
X220648Y279083D01*
X220612Y279079D01*
X220572Y279072D01*
X220525Y279061D01*
X220474Y279039D01*
X220423Y279014D01*
X220375Y278977D01*
X220368Y278974D01*
X220357Y278955D01*
X220335Y278930D01*
X220310Y278890D01*
X220284Y278842D01*
X220255Y278784D01*
X220233Y278712D01*
X220219Y278631D01*
X219913Y278671D01*
Y278675D01*
X219917Y278686D01*
X219920Y278701D01*
X219924Y278722D01*
X219931Y278751D01*
X219938Y278781D01*
X219964Y278853D01*
X219997Y278930D01*
X220044Y279014D01*
X220102Y279094D01*
X220135Y279130D01*
X220171Y279167D01*
X220175Y279170D01*
X220182Y279174D01*
X220193Y279181D01*
X220208Y279192D01*
X220226Y279206D01*
X220251Y279221D01*
X220281Y279236D01*
X220310Y279254D01*
X220382Y279287D01*
X220470Y279312D01*
X220565Y279334D01*
X220619Y279338D01*
X220674Y279341D01*
X220710D01*
X220736Y279338D01*
D02*
G37*
G36*
X211901D02*
X211934Y279334D01*
X211974Y279327D01*
X212018Y279319D01*
X212065Y279312D01*
X212167Y279283D01*
X212222Y279261D01*
X212273Y279239D01*
X212327Y279210D01*
X212378Y279177D01*
X212425Y279141D01*
X212473Y279097D01*
X212476Y279094D01*
X212484Y279086D01*
X212495Y279072D01*
X212509Y279050D01*
X212527Y279025D01*
X212546Y278995D01*
X212567Y278959D01*
X212589Y278919D01*
X212611Y278872D01*
X212633Y278821D01*
X212651Y278762D01*
X212669Y278701D01*
X212684Y278635D01*
X212695Y278562D01*
X212702Y278486D01*
X212706Y278406D01*
Y278402D01*
Y278384D01*
Y278362D01*
X212702Y278329D01*
X212699Y278289D01*
X212695Y278246D01*
X212688Y278195D01*
X212677Y278144D01*
X212648Y278027D01*
X212629Y277969D01*
X212608Y277907D01*
X212578Y277849D01*
X212546Y277794D01*
X212509Y277740D01*
X212469Y277689D01*
X212466Y277685D01*
X212458Y277678D01*
X212444Y277667D01*
X212425Y277649D01*
X212404Y277630D01*
X212374Y277609D01*
X212342Y277583D01*
X212302Y277561D01*
X212262Y277536D01*
X212214Y277514D01*
X212163Y277492D01*
X212109Y277474D01*
X212051Y277456D01*
X211989Y277445D01*
X211923Y277437D01*
X211854Y277434D01*
X211818D01*
X211792Y277437D01*
X211763Y277441D01*
X211727Y277448D01*
X211687Y277456D01*
X211639Y277467D01*
X211596Y277478D01*
X211545Y277496D01*
X211497Y277514D01*
X211446Y277539D01*
X211395Y277569D01*
X211344Y277601D01*
X211297Y277641D01*
X211253Y277685D01*
X211250Y277689D01*
X211243Y277696D01*
X211232Y277711D01*
X211217Y277732D01*
X211199Y277758D01*
X211181Y277787D01*
X211159Y277823D01*
X211137Y277867D01*
X211115Y277914D01*
X211093Y277965D01*
X211075Y278024D01*
X211057Y278085D01*
X211042Y278155D01*
X211031Y278227D01*
X211024Y278304D01*
X211020Y278387D01*
Y278391D01*
Y278406D01*
Y278431D01*
X211024Y278468D01*
X212389D01*
Y278471D01*
Y278482D01*
X212386Y278497D01*
Y278519D01*
X212382Y278544D01*
X212374Y278573D01*
X212364Y278639D01*
X212342Y278712D01*
X212313Y278792D01*
X212273Y278864D01*
X212222Y278930D01*
X212218D01*
X212214Y278937D01*
X212193Y278955D01*
X212160Y278981D01*
X212116Y279006D01*
X212058Y279035D01*
X211992Y279061D01*
X211919Y279079D01*
X211879Y279083D01*
X211836Y279086D01*
X211807D01*
X211774Y279083D01*
X211734Y279076D01*
X211690Y279065D01*
X211639Y279050D01*
X211592Y279028D01*
X211545Y278999D01*
X211541Y278995D01*
X211523Y278981D01*
X211501Y278959D01*
X211475Y278930D01*
X211446Y278890D01*
X211414Y278839D01*
X211381Y278781D01*
X211352Y278712D01*
X211031Y278751D01*
Y278755D01*
X211035Y278762D01*
X211039Y278777D01*
X211046Y278799D01*
X211057Y278821D01*
X211068Y278850D01*
X211097Y278912D01*
X211133Y278981D01*
X211184Y279054D01*
X211243Y279123D01*
X211315Y279188D01*
X211319D01*
X211326Y279196D01*
X211337Y279203D01*
X211352Y279214D01*
X211373Y279225D01*
X211395Y279236D01*
X211424Y279250D01*
X211457Y279265D01*
X211494Y279279D01*
X211530Y279294D01*
X211621Y279316D01*
X211723Y279334D01*
X211836Y279341D01*
X211876D01*
X211901Y279338D01*
D02*
G37*
%LPC*%
G36*
X216925Y279086D02*
X216903D01*
X216888Y279083D01*
X216852Y279076D01*
X216801Y279065D01*
X216746Y279043D01*
X216688Y279014D01*
X216630Y278970D01*
X216601Y278944D01*
X216571Y278915D01*
Y278912D01*
X216564Y278908D01*
X216557Y278897D01*
X216550Y278883D01*
X216535Y278864D01*
X216524Y278839D01*
X216510Y278813D01*
X216495Y278781D01*
X216484Y278748D01*
X216470Y278704D01*
X216455Y278660D01*
X216444Y278613D01*
X216437Y278559D01*
X216429Y278500D01*
X216422Y278438D01*
Y278373D01*
Y278369D01*
Y278358D01*
Y278340D01*
X216426Y278315D01*
Y278286D01*
X216429Y278253D01*
X216440Y278176D01*
X216459Y278093D01*
X216484Y278009D01*
X216521Y277925D01*
X216542Y277885D01*
X216568Y277852D01*
Y277849D01*
X216575Y277845D01*
X216593Y277823D01*
X216622Y277798D01*
X216663Y277765D01*
X216713Y277732D01*
X216772Y277703D01*
X216837Y277685D01*
X216874Y277681D01*
X216910Y277678D01*
X216928D01*
X216943Y277681D01*
X216979Y277689D01*
X217026Y277699D01*
X217081Y277721D01*
X217139Y277754D01*
X217172Y277776D01*
X217201Y277801D01*
X217230Y277831D01*
X217259Y277863D01*
Y277867D01*
X217267Y277871D01*
X217274Y277882D01*
X217281Y277896D01*
X217292Y277918D01*
X217307Y277940D01*
X217321Y277969D01*
X217332Y277998D01*
X217347Y278034D01*
X217361Y278075D01*
X217372Y278118D01*
X217387Y278166D01*
X217394Y278220D01*
X217401Y278275D01*
X217409Y278333D01*
Y278398D01*
Y278402D01*
Y278413D01*
Y278431D01*
X217405Y278457D01*
Y278486D01*
X217401Y278519D01*
X217390Y278595D01*
X217372Y278682D01*
X217350Y278766D01*
X217314Y278850D01*
X217292Y278886D01*
X217267Y278919D01*
X217259Y278926D01*
X217241Y278944D01*
X217212Y278974D01*
X217172Y279003D01*
X217121Y279032D01*
X217063Y279061D01*
X216997Y279079D01*
X216961Y279083D01*
X216925Y279086D01*
D02*
G37*
G36*
X219054Y279097D02*
X219025D01*
X218988Y279094D01*
X218948Y279086D01*
X218897Y279079D01*
X218847Y279065D01*
X218792Y279046D01*
X218737Y279021D01*
X218730Y279017D01*
X218715Y279006D01*
X218690Y278988D01*
X218661Y278963D01*
X218628Y278934D01*
X218592Y278897D01*
X218563Y278853D01*
X218533Y278806D01*
X218530Y278802D01*
X218526Y278788D01*
X218519Y278762D01*
X218508Y278730D01*
X218497Y278686D01*
X218490Y278635D01*
X218486Y278573D01*
X218482Y278500D01*
X218479Y278384D01*
X218482D01*
X218486Y278387D01*
X218497Y278391D01*
X218512Y278395D01*
X218530Y278402D01*
X218552Y278409D01*
X218577Y278417D01*
X218606Y278424D01*
X218639Y278435D01*
X218679Y278442D01*
X218719Y278453D01*
X218766Y278464D01*
X218817Y278475D01*
X218868Y278486D01*
X218927Y278493D01*
X218988Y278504D01*
X218996D01*
X219018Y278508D01*
X219054Y278515D01*
X219094Y278522D01*
X219138Y278530D01*
X219181Y278540D01*
X219221Y278551D01*
X219258Y278566D01*
X219261D01*
X219272Y278573D01*
X219287Y278580D01*
X219302Y278591D01*
X219345Y278621D01*
X219382Y278664D01*
Y278668D01*
X219389Y278675D01*
X219392Y278690D01*
X219400Y278708D01*
X219407Y278730D01*
X219414Y278751D01*
X219418Y278781D01*
X219422Y278810D01*
Y278813D01*
Y278832D01*
X219418Y278853D01*
X219411Y278883D01*
X219400Y278915D01*
X219382Y278948D01*
X219360Y278984D01*
X219331Y279017D01*
X219327Y279021D01*
X219312Y279028D01*
X219290Y279043D01*
X219261Y279057D01*
X219221Y279072D01*
X219174Y279086D01*
X219120Y279094D01*
X219054Y279097D01*
D02*
G37*
G36*
X212371Y278213D02*
X211348D01*
Y278209D01*
Y278202D01*
X211352Y278191D01*
Y278176D01*
X211359Y278133D01*
X211370Y278085D01*
X211388Y278027D01*
X211406Y277973D01*
X211435Y277918D01*
X211468Y277871D01*
Y277867D01*
X211475Y277863D01*
X211494Y277841D01*
X211526Y277812D01*
X211570Y277780D01*
X211625Y277747D01*
X211690Y277718D01*
X211767Y277696D01*
X211807Y277692D01*
X211850Y277689D01*
X211872D01*
X211887Y277692D01*
X211927Y277696D01*
X211974Y277707D01*
X212032Y277725D01*
X212094Y277750D01*
X212153Y277787D01*
X212211Y277834D01*
X212218Y277841D01*
X212233Y277860D01*
X212258Y277892D01*
X212284Y277936D01*
X212313Y277987D01*
X212338Y278053D01*
X212360Y278129D01*
X212371Y278213D01*
D02*
G37*
%LPD*%
D11*
X237720Y267224D02*
Y292776D01*
X205280D02*
X237720D01*
X205280Y267224D02*
Y292776D01*
Y267224D02*
X237720D01*
M02*
